<mxfile host="www.draw.io" modified="2019-12-05T08:33:45.096Z" agent="Mozilla/5.0 (Windows NT 10.0; Win64; x64) AppleWebKit/537.36 (KHTML, like Gecko) Chrome/73.0.3683.86 Safari/537.36" etag="abpPTY-dFKK5FC_X0bja" version="12.3.6" type="github" pages="1">
  <diagram id="yD6TfWP_XB6dSVbr0mUO" name="Page-1">
    <mxGraphModel dx="1202" dy="552" grid="1" gridSize="10" guides="1" tooltips="1" connect="1" arrows="1" fold="1" page="1" pageScale="1" pageWidth="850" pageHeight="1100" math="0" shadow="0">
      <root>
        <mxCell id="0"/>
        <mxCell id="1" parent="0"/>
        <mxCell id="hD__3-pXEL17_GTIyWIv-1" value="" style="verticalLabelPosition=bottom;verticalAlign=top;html=1;shape=mxgraph.basic.rect;fillColor2=none;strokeWidth=1;size=20;indent=5;rotation=90;" parent="1" vertex="1">
          <mxGeometry x="40" y="271" width="270" height="30" as="geometry"/>
        </mxCell>
        <mxCell id="hD__3-pXEL17_GTIyWIv-2" value="" style="shadow=0;dashed=0;html=1;labelPosition=center;verticalLabelPosition=bottom;verticalAlign=top;align=center;outlineConnect=0;shape=mxgraph.veeam.3d.esx_esxi;" parent="1" vertex="1">
          <mxGeometry x="240" y="161" width="38" height="52" as="geometry"/>
        </mxCell>
        <mxCell id="hD__3-pXEL17_GTIyWIv-3" value="" style="verticalLabelPosition=bottom;html=1;verticalAlign=top;align=center;strokeColor=none;fillColor=#00BEF2;shape=mxgraph.azure.virtual_machine;" parent="1" vertex="1">
          <mxGeometry x="330" y="91" width="50" height="40" as="geometry"/>
        </mxCell>
        <mxCell id="hD__3-pXEL17_GTIyWIv-4" value="" style="verticalLabelPosition=bottom;html=1;verticalAlign=top;align=center;strokeColor=none;fillColor=#00BEF2;shape=mxgraph.azure.virtual_machine;" parent="1" vertex="1">
          <mxGeometry x="330" y="203" width="50" height="40" as="geometry"/>
        </mxCell>
        <mxCell id="hD__3-pXEL17_GTIyWIv-5" value="Management VM&#39;s" style="text;html=1;strokeColor=none;fillColor=none;align=center;verticalAlign=middle;whiteSpace=wrap;rounded=0;rotation=-90;" parent="1" vertex="1">
          <mxGeometry x="330" y="157" width="130" height="10" as="geometry"/>
        </mxCell>
        <mxCell id="hD__3-pXEL17_GTIyWIv-6" value="Platform Controller" style="text;html=1;strokeColor=none;fillColor=none;align=center;verticalAlign=middle;whiteSpace=wrap;rounded=0;" parent="1" vertex="1">
          <mxGeometry x="239" y="127" width="40" height="20" as="geometry"/>
        </mxCell>
        <mxCell id="hD__3-pXEL17_GTIyWIv-9" value="" style="shadow=0;dashed=0;html=1;labelPosition=center;verticalLabelPosition=bottom;verticalAlign=top;align=center;outlineConnect=0;shape=mxgraph.veeam.3d.esx_esxi;" parent="1" vertex="1">
          <mxGeometry x="241" y="369" width="38" height="52" as="geometry"/>
        </mxCell>
        <mxCell id="hD__3-pXEL17_GTIyWIv-10" value="" style="verticalLabelPosition=bottom;html=1;verticalAlign=top;align=center;strokeColor=none;fillColor=#00BEF2;shape=mxgraph.azure.virtual_machine;" parent="1" vertex="1">
          <mxGeometry x="330" y="147" width="50" height="40" as="geometry"/>
        </mxCell>
        <mxCell id="hD__3-pXEL17_GTIyWIv-11" value="CRG" style="text;html=1;strokeColor=none;fillColor=none;align=center;verticalAlign=middle;whiteSpace=wrap;rounded=0;" parent="1" vertex="1">
          <mxGeometry x="241" y="344" width="40" height="20" as="geometry"/>
        </mxCell>
        <mxCell id="hD__3-pXEL17_GTIyWIv-12" value="" style="verticalLabelPosition=bottom;html=1;verticalAlign=top;align=center;strokeColor=none;fillColor=#00BEF2;shape=mxgraph.azure.virtual_machine;" parent="1" vertex="1">
          <mxGeometry x="330" y="331" width="50" height="40" as="geometry"/>
        </mxCell>
        <mxCell id="hD__3-pXEL17_GTIyWIv-13" value="" style="verticalLabelPosition=bottom;html=1;verticalAlign=top;align=center;strokeColor=none;fillColor=#00BEF2;shape=mxgraph.azure.virtual_machine;" parent="1" vertex="1">
          <mxGeometry x="330" y="443" width="50" height="40" as="geometry"/>
        </mxCell>
        <mxCell id="hD__3-pXEL17_GTIyWIv-14" value="Production VM&#39;s (Customer Configurable)" style="text;html=1;strokeColor=none;fillColor=none;align=center;verticalAlign=middle;whiteSpace=wrap;rounded=0;rotation=-90;" parent="1" vertex="1">
          <mxGeometry x="321.5" y="395" width="147" height="24" as="geometry"/>
        </mxCell>
        <mxCell id="hD__3-pXEL17_GTIyWIv-15" value="" style="verticalLabelPosition=bottom;html=1;verticalAlign=top;align=center;strokeColor=none;fillColor=#00BEF2;shape=mxgraph.azure.virtual_machine;" parent="1" vertex="1">
          <mxGeometry x="330" y="387" width="50" height="40" as="geometry"/>
        </mxCell>
        <mxCell id="hD__3-pXEL17_GTIyWIv-17" value="" style="endArrow=classic;startArrow=classic;html=1;" parent="1" edge="1">
          <mxGeometry width="50" height="50" relative="1" as="geometry">
            <mxPoint x="189" y="191" as="sourcePoint"/>
            <mxPoint x="240" y="191" as="targetPoint"/>
          </mxGeometry>
        </mxCell>
        <mxCell id="hD__3-pXEL17_GTIyWIv-18" value="" style="endArrow=classic;startArrow=classic;html=1;" parent="1" edge="1">
          <mxGeometry width="50" height="50" relative="1" as="geometry">
            <mxPoint x="190" y="391" as="sourcePoint"/>
            <mxPoint x="241" y="391" as="targetPoint"/>
          </mxGeometry>
        </mxCell>
        <mxCell id="hD__3-pXEL17_GTIyWIv-19" value="" style="endArrow=none;dashed=1;html=1;" parent="1" edge="1">
          <mxGeometry width="50" height="50" relative="1" as="geometry">
            <mxPoint x="310" y="471" as="sourcePoint"/>
            <mxPoint x="310" y="111" as="targetPoint"/>
          </mxGeometry>
        </mxCell>
        <mxCell id="hD__3-pXEL17_GTIyWIv-20" value="" style="endArrow=classic;startArrow=classic;html=1;" parent="1" edge="1">
          <mxGeometry width="50" height="50" relative="1" as="geometry">
            <mxPoint x="310" y="461" as="sourcePoint"/>
            <mxPoint x="330" y="461" as="targetPoint"/>
          </mxGeometry>
        </mxCell>
        <mxCell id="hD__3-pXEL17_GTIyWIv-21" value="" style="endArrow=classic;startArrow=classic;html=1;" parent="1" edge="1">
          <mxGeometry width="50" height="50" relative="1" as="geometry">
            <mxPoint x="311.5" y="411" as="sourcePoint"/>
            <mxPoint x="331.5" y="411" as="targetPoint"/>
          </mxGeometry>
        </mxCell>
        <mxCell id="hD__3-pXEL17_GTIyWIv-22" value="" style="endArrow=classic;startArrow=classic;html=1;" parent="1" edge="1">
          <mxGeometry width="50" height="50" relative="1" as="geometry">
            <mxPoint x="310" y="350.99999999999994" as="sourcePoint"/>
            <mxPoint x="330" y="350.99999999999994" as="targetPoint"/>
          </mxGeometry>
        </mxCell>
        <mxCell id="hD__3-pXEL17_GTIyWIv-23" value="" style="endArrow=classic;startArrow=classic;html=1;" parent="1" edge="1">
          <mxGeometry width="50" height="50" relative="1" as="geometry">
            <mxPoint x="310" y="222.99999999999994" as="sourcePoint"/>
            <mxPoint x="330" y="222.99999999999994" as="targetPoint"/>
          </mxGeometry>
        </mxCell>
        <mxCell id="hD__3-pXEL17_GTIyWIv-24" value="" style="endArrow=classic;startArrow=classic;html=1;" parent="1" edge="1">
          <mxGeometry width="50" height="50" relative="1" as="geometry">
            <mxPoint x="310" y="170.99999999999994" as="sourcePoint"/>
            <mxPoint x="330" y="170.99999999999994" as="targetPoint"/>
          </mxGeometry>
        </mxCell>
        <mxCell id="hD__3-pXEL17_GTIyWIv-25" value="" style="endArrow=classic;startArrow=classic;html=1;" parent="1" edge="1">
          <mxGeometry width="50" height="50" relative="1" as="geometry">
            <mxPoint x="310" y="110.99999999999994" as="sourcePoint"/>
            <mxPoint x="330" y="110.99999999999994" as="targetPoint"/>
          </mxGeometry>
        </mxCell>
        <mxCell id="hD__3-pXEL17_GTIyWIv-26" value="" style="endArrow=classic;startArrow=classic;html=1;" parent="1" edge="1">
          <mxGeometry width="50" height="50" relative="1" as="geometry">
            <mxPoint x="280" y="395" as="sourcePoint"/>
            <mxPoint x="310" y="394.5" as="targetPoint"/>
          </mxGeometry>
        </mxCell>
        <mxCell id="hD__3-pXEL17_GTIyWIv-27" value="" style="endArrow=classic;startArrow=classic;html=1;" parent="1" edge="1">
          <mxGeometry width="50" height="50" relative="1" as="geometry">
            <mxPoint x="278" y="191.5" as="sourcePoint"/>
            <mxPoint x="308" y="191" as="targetPoint"/>
          </mxGeometry>
        </mxCell>
        <mxCell id="hD__3-pXEL17_GTIyWIv-30" value="" style="fontColor=#0066CC;verticalAlign=top;verticalLabelPosition=bottom;labelPosition=center;align=center;html=1;outlineConnect=0;fillColor=#CCCCCC;strokeColor=#6881B3;gradientColor=none;gradientDirection=north;strokeWidth=2;shape=mxgraph.networks.switch;rotation=-90;" parent="1" vertex="1">
          <mxGeometry x="551" y="292" width="312" height="29" as="geometry"/>
        </mxCell>
        <mxCell id="hD__3-pXEL17_GTIyWIv-31" value="" style="endArrow=classic;html=1;entryX=0.467;entryY=-0.583;entryDx=0;entryDy=0;entryPerimeter=0;" parent="1" edge="1">
          <mxGeometry width="50" height="50" relative="1" as="geometry">
            <mxPoint x="510" y="169" as="sourcePoint"/>
            <mxPoint x="405.6700000000001" y="168.79000000000002" as="targetPoint"/>
          </mxGeometry>
        </mxCell>
        <mxCell id="hD__3-pXEL17_GTIyWIv-35" value="" style="endArrow=classic;html=1;" parent="1" edge="1" source="8w2w_Armb7Lmg7mIWZFZ-2">
          <mxGeometry width="50" height="50" relative="1" as="geometry">
            <mxPoint x="497.5" y="418" as="sourcePoint"/>
            <mxPoint x="498" y="327" as="targetPoint"/>
          </mxGeometry>
        </mxCell>
        <mxCell id="hD__3-pXEL17_GTIyWIv-38" value="&lt;font style=&quot;font-size: 10px&quot;&gt;PowerProtect - Capacity Cube&lt;/font&gt;" style="text;html=1;strokeColor=none;fillColor=none;align=center;verticalAlign=middle;whiteSpace=wrap;rounded=0;" parent="1" vertex="1">
          <mxGeometry x="490" y="364" width="180" height="20" as="geometry"/>
        </mxCell>
        <mxCell id="hD__3-pXEL17_GTIyWIv-39" value="Network Switch" style="text;html=1;strokeColor=none;fillColor=none;align=center;verticalAlign=middle;whiteSpace=wrap;rounded=0;rotation=90;" parent="1" vertex="1">
          <mxGeometry x="612" y="286" width="246" height="20" as="geometry"/>
        </mxCell>
        <mxCell id="XEwbCVycjGLPTv6JZZGq-1" value="&lt;font style=&quot;font-size: 18px&quot;&gt;&lt;u&gt;&lt;font&gt;&lt;b&gt;PowerOne Data Protection Solution -&amp;nbsp;&lt;/b&gt;&lt;/font&gt;&lt;span style=&quot;font-family: &amp;#34;arial&amp;#34; ; font-weight: bold&quot;&gt;X400 PowerProtect Hardware Solution&lt;/span&gt;&lt;/u&gt;&lt;/font&gt;" style="text;html=1;strokeColor=none;fillColor=none;align=center;verticalAlign=middle;whiteSpace=wrap;rounded=0;" parent="1" vertex="1">
          <mxGeometry x="110" y="40" width="670" height="20" as="geometry"/>
        </mxCell>
        <mxCell id="8w2w_Armb7Lmg7mIWZFZ-2" value="" style="shape=image;verticalLabelPosition=bottom;labelBackgroundColor=#ffffff;verticalAlign=top;aspect=fixed;imageAspect=0;image=data:image/png,iVBORw0KGgoAAAANSUhEUgAAAKMAAACTCAYAAADiFqktAAAgAElEQVR4AZSdB3iVVbb3/znnpHcSSKOG3nuxIYI0UQG7Y9cRZexdxz4WxtFRsaA49l6wIIhdQKrSeyeEQEggpPd2vue33rNjZu693/2+nefNOectu6y9+l57vWHBYDCo/yhffvmljh07poaGBnXp0kWRkZEKCwtTXV2dysvLtXfvXq1cuVK7du3S4MGDdddddym1bVs1NzWpTXIbtUlpo/KyMhUeParw8HCFhfkk0QxHmLVGfTTNJ6WxodEu0R7njuTnq7aurtUTks/ns2eam4NKiI+zNulTXl6e/H6/tROqzupoZmjB4L/VQQ+aGpuUlZWp6OhoFR8/rvKKipZ+WCfoEs8Fg4qKilJ6erpqa2nnoCKAhY0hKNGYfYTJ5/fZM4zFjam+vl6pqamKi4tT0bEi1dbV2hjc2GmDOvjdUF+vjp06qbm5WQcOHGiBm1fXH1PUGmZ2jXmprVViYqLatGmj0tISlZdXKBAIGFztn42H7gUVGRFhcKuvb1BBQYH89FvAlvnw+g7EwgSsm61vwJ3S1NSk6KhoxcbFq76+VrW1tQb3nJwDdm9GRoYaGxttDLTFQb8SEhJsjsCbTp06qWfPnlbff/6zHh86dEj79u2zayDgunXrxLnvv//eHiwtLTXEBFBMPp2ioerqakVERGrOnDnavGmTAgGf2iSnaOGiRUpITNTMmdfr4MFcxcXFu3mzyQsPBGzygs1Bq6uuvsHqeujhR5Wdna0Vy3/Vww89rOiYGJs8Jjrg8ysQHrCBNjY2qaKiXM8997z69uuvhQsW6NelixUbFye/PyC/zy9/wCeQNtjcrGBoMpqbm1RZWamhw0bovvvuU0V5mR584H5DVgDPZDApTU3N1g7jLS8v1Y033KRTTxurzZs26ttF3ygqOkaBgF8+v19q9nDSH/Db8wwQoqyuqVFGRqYeevgRg+ucl19QSWmZoqOj5PMH5DOqCcoX5lNjU6OKjh3TNVdfreGjTlTewTx9veArRUdFKTw8whACxGMYTc3NVh9942hobFBKmza66+57bawvPP+8ETEMhP4xfq8tqaGxUQVHjujaGddq2PCR2rR5i75btMCIBSIEBg7xjHVYG0GDCbCMi43RLbfcppKSEj380AOKj4+3tpYtW67zzjtXw4YNk8OVmpoacezYscMO8CUtLU0DBw7UzJkzDWk5B9FARNYunHHJkiXBv/71r8EVK1YEV61aFbzxxhuDl19+eXDQoEHBMWPGBHv37h3s27dvsGfPnsEuXboEO3XqFOzcuXMwNTXV7psyZYr13bG/+++/n2qDvy5dGmzXtm3Q5wv7t+vcByGGhf1x/rTTxgYrK6uDWzZtCmZlpP/b/b6wsKDf5/u3c9RxwqiR1s6uXTuDiQnxQe4LDw+3IyI8PBgRHghGREQEIyLCg+GBgD2fnpYWXLNmTbC2piZ4xsQJds7v9wfdQV/pFzzP43sK9u7ZPVhZWRmsqqoK9unV29qJi4sLRkVGBiMjIoKx0dHB6KgoO/hNX+nHF198Yf27Yeb11g71+ny+YCDgDwZCfYuMjAwGAoEggqJnz+7BnJyc4LGi48GhQ4cb3BITE4LJyUnBpMTEYHKS95kQHx+MjY0Jhod7Y3rttdesnXvvucfaiYyItHFHRkUFo6Ki7Tv9oR3g1q5tanDnti3WzsiRo6yduNjYYHx8fDAhISGYxJGYGKTtmJiYYMDvPTf7+eesneeee87qoT7gFhUVFZw1a1Zw/vz5wbfffjs4d+7c4OzZs4MPP/xwMDMz0+4FX6ZPnx48//zzgzNnzgxef/31wRkzZgQvvfTSYEFBgdVrnBGsPI64Ki1XWUmZqqqqjP3CHeGEiFo4JpQINjvqgVrhNohIClyyvr5OzzzzjE45+USltEnWpAlj1aVbL3311Xxt2rTR7uNfM100niQNHTpU8+Z9puhIvx564D6VlZWrQ4cOJiIbGuoVDIapXdtUZXboYBxk88aNat+hgwoKj+qNf72ma66doUce+Zv+/tSsECfxqbCwQFFR0SYm4OCMjzLnlVeNgl+Z85J+WbKkZWx2UTJKhfO2Ljt27dFdt9+qOXP/pWdnP6eHHnxQ0dExOuusM7VmzVr9/Msv6te3j3H5yopK7c/J0c0336zp06drxYrl+v6HHxQbE2PSArGPuC4sKFRjc2PrZrRr1x7dfstN+mL+Ar0691WNPe00g8W/3SQpPj5Ow0eMVG1NjQYNHKBrr71Wu3bu1MbNWzV8xAmqqS5Tp85dVF9Xb+pWcUmx4mLjWtQH1Kt777lLXy74VvM+/1xjTh2jffv2/Gcz//b7pBNG6aqrr9HBgwf11FNP2TVwASkJdwNHGBsH5yicA2eMq4eFmbjmO9ebm5rtOvMCjlFMGQCZqiurtbtgt7aWbVVkeJRV4CpDD6BhCpWBjHx6iOk3lss1EJbzVP7na67RaWPH66sF3+nll1/W5EkTdMKo0YpLSFNychslJbdRTEyc+vYdoA8//NRY9ZNPPqnvf/pF9Y2NxuI9/SOomppq7d6zxxBrQP8BqquvV1lZmSorKvSPp59W/uHDuvW2WzX21AlqbmyyQUZHxRhiInLpL4g5c+YNmj59mn768XsT001BtQCIflMS4hMUHt5K3wqN+cOPP9UvP/2oiRMm6rxzL9C+vXuV3bWrERLyuaamVpVVVSaKBw0cpJtuvlnHjx3Vg3+9V1XV1apvaFBFRYWKi4tVWlrWAkPadW2jInzz7Xd68803NGzoED355CxTVSIiIhQRGSF/IGCE7w+Em1pVU12jW2+9zRgC6kZymzbq0LGDDh/KtwNmcvToUWMutVWVKi0u0fHSUiUkxOvrhd/pkYcfUvusTD3w4MMKD480uAXCwxVAjfD7TeUBJmlp7XT/A55YfubpZwzB6ZNDOvCAw9Pbw1qQMyYGdSZg15hLxonKgM6OShUW8Jma4pibQZ2bqmoqFVkRreZAmI7XFynRl2iTwz8a5QEqdohI5Xx3xg33paS0Me5YVVWpY8dLFB0ZrjbJ8aqqqdNX8+fr/Xc/VFxCgmCktMkAMCLS09L0/rvvCGSsqWtoaZf2qB9qy8/P157du5Welm794DnqyDmQq4cffkjPz56t5194VuVlpR6JQTvOmlHQAICBkHsgR48+/JDKyisNeBgOHjWjeAdVVl4aMlBaumHjLCuv0JVXXSX0oxkz/qyzzp6idu3SdNKJJ2rq1LNbuACARgdqk5ysl158QRWb16rRH9syVq5hOMDVGBsF+NLdxoYG1Tc36roZ16p3z166bsafNWHC6VIQPTFMGGRGMmFhZvBhGHXq3Em/Ll2qzz7/QpdcdoVqa6pNN6yr8wwMGER9Y5MRaUawSbVNjSoMj1BcYoJmzXpSvXv11JVXXKLhwwabEYXxAtcy3TQo02cZS6/evbR79x699dabLcjlIMQ8OqnpkBJGBo64Aq5wrqayWsFoKTAyUv0aeuvgvlyrj/sMGbH6YmPjtHXPRlVVVCi8MVxhsR6noHKUUioCkFAEQITKMQZACM5hMUVGRSk2JlYJCXHGASIiwlVWWaWkpCQdzMvTAw/co8y0diiLZmQggocMG6ZpU6cbZwkEIqQQMqIc0x7tQnH0o7DwqLWNcdSlS2eVl5Ubx8vIytKxwiPas3unVq1YachqBobPMzJQJZISkzR+0iRVVNaops4DUlRkpOLi41VRXm71B4OIF5/HfWjX5wsZad6Y09IzVFR0zIyabZvWq7qmVpER4YqNi5UPoynMI85gcxdV1tWpQ1OZslLb6rhiVVJWbuPBQMMjAWePiY42xKGvcNao6GgzOJAsB3IPGNeqrS5XQ12dGXy0waxgyPkgmWC9jhzO0/Hi40pLSzeiwWhISUlRZmamWbtFRUVqaGpWVkqKTkqJVqEC2nS0RHt27VJUdKx27dqt/EN5io2OUDAKgyeoMJ+vxWjxmI/P2snNyVEgPELNVVUOx1o+nagGNyAu5sxxSncT12qqaozga9fXqTCmjeoa6gyHWpCRh5oa6hWXnKnq5lLFN5aorrHRxC4VgBRgPgcNoVPyCaKYaFaY4uMTrFJEXHV1lbKzu2rDho1qbm5UfX2jEuPjtXjJrwLxPYHvdfGzL+YrMjJaEydN1BlnnqlPPvnELsD5QHJ0s7i4WEN83CsAB47QpUu29u/fpzYpKbrwgvNNl7nuLzebCyEmOsbEfGpqiuJiYw2ApSXF2rB5qx5/4gldePFFWr9hg1E/Y0KEmmumyXMfcQ4iq62vt75A4YznxhtvUGZWhm684WYtWPC1qRtNTY1mOUdGRBonxpLu0aObXp37mgafca4+/HWDEg4eNK7rEXJUy/ixuDnX2OjBNSUhwRDonHOm68wzp+i9d98z7gVMA4FwuxeYA4OGhkbFREfp3vvu1cknj9YZkyerodmzTmNjog0ZjxcXm+rgq69XWnpbNaanqbykQjHlNSYux4wZo+nnTNfmLVt0//33q6y0xERzmC9MeDzoaH1Dverq6nXrrTdp6rRzdcbkM/ThRx94kxf6D6zoE3hE8RD4D3XO3UzfwyPD1T4uS5X7jytyULh85oXwMMJzIEkqKSlWdnZHdR5yhsqrGuS5zTw/m0MMKmViOFwH4FhV1VUqKys1nx2sHH/TrCcf09VXXW5AQ+eD2qOio9S9Zw/jbrh74KRpGRn68qv5Kiws1BWXX2ZAtHbwO9rAPP9YcnKyEhISjYMlxMcbx2poaNJll16qrIx0vfzSS8LflZKSasZNcpsUVVbXqryySm3T0tSzTz99Nu8L/fzzT/rL9ddr8uQzjDDC4fRRniqAHtO2XTsjLIwx3CpQPCLylFNO1llnnqkff/hBq1f/puiYWJ01barGnT7ekHL0mLGaMGGSThl9qrbv2G2GVVqXrjrl9PHm+4P7FRQcUX7+IeN+EC+cMCI8QuEgWniE+Sl7dO+u6667TiUlpfrw4491KL9AB/PylZt3SPsP5Gp/Tq4KjxYpOSVVu/flaM7LL6umukrnnHuOOnXsaEYhU+t8gNTb1Nig3Tm5WrB0uXZt36aiY0cVExuriy++UBDuRx99rPUbNupg3mEdyD2o/TkH7DO/oFD79h+wtt98820VFhzWjTf+RdnZ3Wxu/vOfMZpWtgWwA08o4Il9DzbpyNEiNfe/XDURbaUmz3jhnhadsbquXt98+YnapGSYGEpKzDRKpJLWst91wFEBlM3AGPxll11mzuRuXbPV1Nho+lnHjh1MIcaihYt169pV48eNs4nAc9bU3GScdOvWrZow/nQ9+MADyjlwwJyjKNoo7SjUDAngLFy4ULW1NSbmRowYrrFjT9V3332nb7793ogASxN/GJ9Tz55qbcLpEHEHTzhBv/66QiOHj9Ddd92hUaNGqm3btkYcEAZik/GgL8H54XJ8woX69Omp6qoK0xmZeAwDRH9NVZVJB4yYqupKQ4b+/fvp03mf6+ypU3XRBecrZ/9+7dmzW6ePP910XtoAfjZ5+Fqbm0zqYFl2697NjKL333tPw4cN06RJkxQbG2sEg1GGpGhsblJ9bZ2OHTuqbxYs0BdffKGp084x7rtx43qbIphLVGSUzUeX7C42lvp6fMSeU33UqFHC0Nq5a6fVfeONN5rh5jgcRiY+233792vTxg1avXq13n3nPd1+51269ZabtW3HdlVVVWv3rl3Ky8v9N+bkEA/kA/YU9wm3raisVmRYI7NvujxtUgwZ+REdGa3mSL8OHz+gxIhk4wZUytG6MtcQzwBUfsPSmbSKiip169Zdffv00tfzv9Ivi39Vz149VF1d4xk/YWHm+kHXRDSCYDzHZPz2228aOKC/TjrpBLOWUfKZcNc+6kDAH6ZIUwNq8TVr4sTxCjY36fXX31CYP2DGU0Njk46XlMkXxqArFZeQaGoFlidIlpt7QIuXLNaFF11knGDXrp2mbkBwmzdvtnujoiLVtWs3U0/ox/Dhw9W3b1/9/clZ+u77Hw1ZAG5SQpx276owwuBZVjPg+OioIPAbb7xp3PK0Mafqm0XfqF+/AYqIjNWhg3lGvAG/T9Ex0ZgMNo7MzCxNnjhRu3fv0qJFi9StWzehXrCaBbzjYqIUGx0lrGl+pybHm0vptX+9boiOqvPsc8/pyJEjcu4p4MsMQlhMJXo6SHLtNVcrPCJcy5ev0NHCQsXFx3lz5MRtc7Ot1sRFhatDVoaOdc3WR598qvETJmjMmNGKDPcL12/H9pn68aefjWGBDxTqNy4Y4oicYx6BcRC9N1iv5jWvaWtYQE1hhoL2XAtnpMdDhwxXUdQxlWwtFm5fqNdVzCcDowAIKudA/KJDovRWV5UrOSlReQcP6tNPPxOTCrJgILD8hC4Sdjio2tpq46YsObGEAeDQ7b74ar6unzFDJ54wykRhcUmJrVhERkbp8OFDqqlpUn2DV9+UyZM0+uST9Nprc7V23QbjasXFx62PIMqpo0/V/r17dDgvV3X1taaYI7JiYqL10stzDMFGjhiqfXv3iOcwVoYPH2YExhIe9+7Zu1fDhg1V27apevbZ57Rh4ybdeuut5rPcs2ePuvfoJQzG9es3KjW1jU3Unt171NjYoD59++rEE0/UPffcpcSEBHXNzlZsTKSiI3xKTIzV1i0bdfnll2vHju1mVEHQp48fp4bGej377POGQI1NDaoorZRPPgXC/QrzpUi+cPkagmblBssq1Sm7qw5//InmvjpXT//zGU0YP0E5+/YJt0psdLTiEuKFZY3eB4GgzyMxevfpYyrHps2bzZuA5EI3ZUWI1aSmhEQ1szrUHDQp1qNHD327b79ef/1f+vtTT2nAoCG2JAzBm77dWhSHENLhj8MZcAjDC8PR3zNJGeGp2rFmewvDaUFL9LmDOQcUkRopf9CvQITnH3Li2CElEw1SOn0Aa620pESRGDONTYqPj9Wnn3yi3Xv2GUBLt2w3BOYfyJWX1/Lzv3zxBxZqyKBBGj16tLZv36nyikr5oJwgFnuUEpNiddppGRo9+hQT9SDEO2+/a6IcMVtbV6/mkE905aqVZvHTyCWXXKItW7fakqVrFOf3448/ZktUK1auNq729ttvaf78r7R27TqdeeaZat6926zUjRs3qnPnLsrIOqSLL75Ys2fP1g8//KCbbrrJkBeOCIGmt2tnE4zK0rlzZ51/3rm6fuZMrfn9d0PinTt3at36DSbWMS5YdkUMHjqUpxNPPElZGRn6bfVvJnaLQk5619/Wn8xFakqqLaPDjdCnP/1snumNl1xyken/6PE42puDzco/nG8iF44NoV144fk6frxIb739tlat/q111f/r98VLl5kradSok/TZvHlavXqVweDSSy415gUcWhf6SnH4E2xqVkVYpVLaZiijPlPbgltbuKghI+yT4AbM7vKiYmV362YiDtFIgQOChC0Vhlguvw8fPmzGBw5b9EFcFGvXrrfJQSy6ztBJvuOCQJGnPurFMqZ9JhAf3Y6dO3XWWWdp3LhT7Zx1gGV71uZCSjA6VExsnAVqYKRg8eOSiPEFVd/cJJ8/3BARguEZxB3uFNbPXVmxYpVqaut0xRWX6MILzjVHLuu4O3bs1CuvvGKc8/rrrzdxmZWVZX0GwXAKo2bQXyQCLi7WanFf4QfErYLbhrZB2C6dO5thx8oFbpfevXubjgvn2rBhgz777CPFJyRIwhJt1tzX/iUQ0cGa/nrz+YdkgkHQDkEbcGGQ7uDBGr395lt6/oUXdffdd6i2usq4ZzPKUHPQ+gZ3gOkQLDF79guGiLjknHeENjFWwXL0cmCHDxYkhrMyJub383nzNGLkKP3pootM7dq2bZunN0t2P7DhWWf5MwZ+oyPLH6YB2QNUurFIhW0PKxAR7qbE0xmhroL8wzph9HhVB9ro2O7VCg94ct/kfEgkO4SkYncwECanqrpGmzZt0pVXXqbbbr9N18+8oYUz0SmHlCAfz4KccFgGi/uAAWRkZprSD4LfdtutWrduvV1HhCLiASb6ZccOHfTErFnq3DlbAwYM0A8//qiEpCT1ToxSva9JueFxKgoGFRHuLVPRNvW3LpOnnKGkhAR9/NEHBlwQ86lnntPAgYP0xBNPWKTOww8/LBASRGIMHTt2MsfwxIkTjRsRgYLbC9HNPbSBngs8QGD3+9JLL9XHH39sY0b/HDJkiDnw+/bro4fuv19JifHq0LmrLrviCp1//gX64IMP7V4QA1gBJ2dMMQaQIiY22owyjBL07z59e+uqP1+rmro6/bZyhTqkRCoQbFRdMxatTA3xR0Rp25FiZXToqIsuulgLF32nnP37rD7acMjj5pm2QHb3283h9HPOU0qbFP2+5ndDZIjDHdzrbAlwx3FKVwe/jxUUqCEsXv6aJlz5NkYbF/+4AZ9XwdF8hbeJtvXQpMTYPyyg/9AHeIbO0zk+6QjcacPGjVr8y2Lhv2Jddf7XX9s1BolVjIWNzkJ7nlkkoxajGEm33nKLevXobiFpXy/8lmbMKGFwmVmZ6tmjp44UFGjJslV6++339OJLL+mKK67Qd99/r9joGLWLT1JTQo2qGn0qq64xHQiOhV4LZ3SFMLWbb7pRiM2bb7tTFRVYwdK27duFhU4I10svvaRff/1Vv//+u2bN+rutAD300IN6/LHHNWjwYPXr18+c8Ew0rpgPPvjAJpN1YpAQHyhEBZdEleEc7S5evFgnn3yyzj77bK1YudJ0UdcvnNmXX3G1EcCrr75qcAJWwBcp5QMpzTPAOc9o5NnqmmpdedblOuHEE/X2G69p+9IvVFgRVD0E2NykYBiEj8kXVNukJPUaMUaXXn21rrrycj3++JM2B7SB3g7mwhUZl88XMO7qVoDQOU8fN1bjxo3VqtWr9cWXX5qLDeJwyEh/6DPn6DP9dQV8CTY1qLi8Vu2n3aNuTVt1eN+WFkbVYsDgWd+2cYOaGlYrqU0bNcZFGwCZSIqjCvedBsF8Cuu+GBlHjxbq3fc/0MhRI3X5ZZfq12XLTIS5+7xnmlqe41nq5xg8ZKguv/wyrV61Sp9+Os/cGclJyWYBssIxevSpGjRwoFasXGFqwZat2/T1/C81bfp0C0hYsnixKjO7qTpOisJ69xcYcsBdQAoQggKQWAZDXbj7zj8QkWvXzZhhHA8XiyOQLVu26O677tT7778r6XbdceedHqdqbjarmhg97u/Xr7+tobvQKTjkhAkT9PLLc/TNwgXCasd9xfo1CI6ex7M2QSGPxdP/eEYTJ07WjBkz9Pnn81RUdNzEJvCB6F1BbLpJ5vnOHTvpnHPO0e7de5W77hft2HNQP67f727/t89+adHq0C5JWzdu0NSp0/TD9z/p2+8W2T1IHUQ0SEf9tooFwzF8Cpo6cP111xlHxoLH6KHQN+aYvgBffnPwnXMc/IbLNweJ3axRYPuH2llWpOZW1rRpm2Cw50op1Oat27ylrZA3nUpchXSQCvlN4Te6S2xsjFlsnNu+fYc++OAj9e7VQ5dddqnd5/5xP4CkWJ028AYD+L1336W2qSl65913VXisyKiLgIjauhrVN9TZui1rx507dRIukYaGOr3zzrum6yHS0bu25+So+HiRGs194XFdCGDr1s06euyYtTt+/HhDXuL4Pv70MwOY6x/cC+e7caFWijhRLtQ787rr1L1bd0M61JMRI0YoPSPd1BGc/iAi54FlTEysBSIkJ8brgw8/MCc24hvqglsfyDlgwQhwfVe2bt+ht998wwKWb7/9DoM1iAjM4TxMLvfjPwQRaKukuFgXXnCBWKpc+MXHOrh7p5ZtPeiq/C+fWwtrtHPLJm1c9rPCI/268sqrFG/xpnDEOiNC5ga/LO3Rrpvv888/z3yzP/30s0kNVzn9ozC/rvCMwx3q4DsEjoSMjPArf+92VZRXGAxc/cYZiWRmcPv3e9RE5e5hGuBmd9AY3zkPNWCd8SziCF8crhOCGvKPFGjyhAnm82LpLikp2QaGoUP9cGKex//Xpk2S+QzffON1ffb5l2aBEuhZU1NnBg6Wco9u3dWuXTv99PNPxomwYLFEWTK76+57dNWVV+jjTz5RVlb7UNBnrblOunXvYUBg8R8f28gRw1VVUa45c+Zq+vRz1TW7i7mdzNHd3KCS4hIT2wStmluqolKHD+fryVl/18iRozTr70/q3vv+alIA4OIDBBZ79+2z9XZEIecvufRPGjhosP75zD/022+/W8QRbiKMjbT0NA28+SaLB6DdOkOCOlVV1+qrr7/SxIkTNOPaa0y0QpAE2dqE2lz4VIdKVVhgXJYwvXHjx2r58l+Vt+VXbSuqVm29x6UckjgEcZ8/78xTp27btPi7n3XymFN0z733KvdgriLQ7ZF4Jl5xwdWa/gtxIbovueRPFqfw+ZdfKjEpyQgLAgNXKKhqED8HOOIQGfg4PIJgi4tLTGoFg+VWP9co/kceeeQRKJVKf/nlFzvJYj7WHiFIIICjTrsYQkY6wHksVSgUBISSGMCBA7kWiT150iRlZmSa35HzuBmYKNZz6xHPNXVSc6MmTBgnghQeevAhs3BZi0bklxQfV0VFmcpKi1VYkG++PCYW8ebzh5llt2P7Do0de5r59DZv2abD+flqMMMo2pbs8vIOqaCg0AIPTjzxBA0dOkxv/us1Pf/iS4qICFjf9u7do4O5B3QoL88iobH2i44XqaKsTKUlcLxq7dmzz4jm3HPONWJYuWKFDh06rOPHSwx2IBUcFX8qSPvi7OdUXFSkm2651YJGQAysdWIL2VJBtBExiPv37VXugQPKO3RQx44Wauu2baZWYMgkJSfp+2+/M0u++DjO71JzghMYkZQQr8S4GIvwSW2Xrjeef1IFefv189q9bprss0uHNPXq0UXlVZ46xMnquibFh9WrXWKUEjKzxYrZyuXLjejwCVdXVXoRRCaR6hUbE6WzzpxiqtL8+fO1bs0aM9yioiONmTDucePGWRp5JN4AACAASURBVJQ+8wxuuAOcImyOwJc+ffoYMi9btswMPpzzF110kaZNm2aI2+JnBCHBZgoVsQcGfQvrF/eFAbNVYC1IBWcDaTFQKFTuCn6vyZMma/CggWrfvoNZzHA4tgTgXPVClYKKjAxXZlaWXnv1Vf2+dp3CIyK1YMFCV82/fS5ZuswGRV+KjnnBsjlVB/Tss8/qhRdfEAYGehPDIP6vurLKFHIqwdHaozvBG2v19rvvqv+AAbbTg/CqqBi2K/jNwKprqFQwzK/GhiZbmUD8ujJ79ouaMuVMXXzRRWrTpq1ZmnAB1n5tdQPr0e837svS5yMPP2Jxh3Ab4AUn/8+Cp8C2L4QuwF0wDC6++CKddtpYC5g4euyoIsMjzejz+8MsZrJD+yxzxq/7fbVKjpdpYM+uKjharNnPz9Syn75SfFKm0jNS1bNDurr1HK5PPv9YZVWVxlzq62t18MABpffor5KiQiUlp+jcc8/TylWrbK0a3RFHNu4yGs3MTNMJJ5wgCP+JWU+ZH9NZzCAieOO4MHB0nNFJUIbGd4egwMKdw9XlVJUWZISrcaAD4k/bvXu3cnNzzZCgckQxWO8qAgk5T+MclOTkJPusralTTW2N7r33XiUmJVoncHeBiGzOAllsNSb0XUGfBXB26tRFObkHrA46T73espank2CImH8tIsL6hX+P8uFHH5klTP8J3oTtG3CMtkJBwMQANjaaj62xWcbN8WvSF4Il4FqMD73JgMb6b8h4ow36QxDBJZderjgIMMKL7WSymDgTQ/hD/X4t/PorEcUDV6aweYzo9dYlgujoyHCLwCYkjq7CVVmiox+PPPo3vfsODn2/wgMefEF4iBgphsFUXFqubetWatjQE9Qhq53FMzaE+ZV19gTFJbVXeW2VfvrhBz329MvKbNdG0QmpOmv8BK38bYV69eyh9IxMHcg/LjwXJcWlGjKwn3Jyc2yOrENBDD6/jhcV6rfVq3SsqFjl5WXGgCCamupq4YkG1g7xnMjlHLgCLClcB+lgXO3btzeDkvkAmV1pQUZOwAmxOrkJtgoyIOON+kOVUqEBPgwxWWONOaog0oXvBrRgs8X+lRKRXeVZXYaE7BTkntAgDKF9IEpPpaenCS7AZNBJ+uEKgyCQARcFfXAEADYR/FmQn6+jRUXmnIXbcL8BJhRdDHCJPczMyFDP3n1sTRY1w3F1phnHLgBEZ3KuJ9c+4yIkra6mWnkHc1V0vNiCXum/6e8QGAMMykLe0MPbpqYqKSmxZbce93JANEwmYyDIBG8ErppAeJ0RvbdsGaOdu3fr0OHDXrBvyOkPt8L3h5Tg+a7dumr9ju1asOhrnXHiQM3+6Ft1ap9hfaguL7eInuOlVbazMSw8oJrq49qfV6iJQzvr/f1btSWvXJ07ttfPixfr4KFcHcjJsb4wXsaD7s53kJeNaERkASPHzfBxOgTkfubMcUCDRwiAnGPMONlhdg7X/oB/KFCC+2mAg9UN3BI0gEOXcxQQxBUqoCEa4HvrCmnQE8FNtmrCFgK4RccO7ZWcnGIimoHwPNyzob5Rhw/nGRc+6aQO5ljevn2ba6rlkwmEgzFYvrtCTB8KPkBh111mZqr1uWvXrjbxZhWGE/UTZgEIhGaxdo5ejG6Lfkp9HhF5hpsjBNQTJALX8AGmpqRYneWVldYPxsBY4fZwfdaAKcUlpcbB4WpELW3Zss3UHQcrxk+bDjlBKtbxwWUIPDGRaHifysrLlZTUxvbOUC/GEnokkTIsfUJM8QVHbYtraUWtjh09rJ49OmnX7lwHnn//bGzSst82KDHSp7DKBP26p0yZnbqYyyklNdUs/ozM9oaA9IlwupLSUq1bs1ZREbkaNnyoBfzu3QfCer5lxuFwxMGQ33wHhxyiuu/AlsURrmOPuGfpaMusgrHsceUiyEgjVIC1jP5I4wb80PZCB0gHVDdqkIXFdizRQESE2IaKCMQiAxGYCEQ8zwFMgF9ZVSnE1pYtm9QuLd3CpHCOO+qjH0wkfWDJjdUIfGG4CVhF4XxlSakREmIc9YKttyApy3ce4XjbbJubGlRdVaWMzCybZNAJAqRwH8ByQOWTc6zzpiS3EUGrrClXV1XbeSLZ4WjcQ2hXPQEZIZaK0UTcJQiMTxNxB6Fyr+OK6JLAhvHRLgQPUiKVSkvLzaqnb17QK+6RRpMqwILQN5C14OhRZWZmKC0zSyt25uuMEwZq/75DFt2N54LixuM6N3lItg6VN6ltVifTk48fLzZCp164LgQMPgDngN+v+IR4kzqoRWwtYV82K1bggCuOgGmL8zAqh4DuHuYcYxcip/8QOm260oKMAInJZ3mOjvAbUUP4OtsOmHAacB2gcdcY91L4zXU2RdEwpF5TW2t1oYtxuHZg/4hcnmEATYFGW7JK7pmojh3ba+fOXVYXE44jln65PtTU19k+jfg4RFyUTSQrSGkJCYbcTCorLvSBiWdSnCOX9iIiShTP/pGO7ZWXd9ie5z7u5zqFtviNbgtS4UJBxzx82DPS6DNiqwkF3u83blZcXGRj4XmiWVB5ILwunTsq79Ahq5N6KcCBA6lBXfQZ4mxr3DfM7mfiOGdIFJJETCDnDOahqKnCo4Xq2KGjBd4eLzmmcScO1HfL1isiKtbWr5l8NXoSLrtdgumPO3JqlNYm1oJqITDmnr4xfvdJP+kXK2e4mPDVdk9MVExsjCprauycU6XcM3wCNz4prfGFe+l39+7dDa+wSxi7Ky3IiI/w1FNPtUrwGWJdw1046CjIBxYb4oS86TTEObgR1N+hQ3vjRnt275LPH6EwXyDErVLVpk2yfWdxn4V6OmvWGkpWmGyzD9b4tq3bNHDQIKWlZxnlIK7sXiYQToWfsrnZKLPSNk8R1OOzuuHqAK9Tx04i5Il6AQyloR63CxbtPh0vOqbDR/I1JD1d/fv3V0VlhcVkwnUxWuDWIC/7goBVYkKc1V9aXm7hVFEhIEdFRKrRDwI3GfLHxsab+HaO/eKSMsXFF6tb125qk9JOZeVlJs5xcQFHi/YJw9Kus/6xHEdbiHn6PWL4CAsBQ4eEK+KfI2ME44BBgDjoXoVHjykjPUPdunbWwmXbdf+fpys1Ll6VlVVWTwPbGvBR+sM1rE9HrdiyV23TPGc9fe7eo6clSSCu0rYQw92wikMEQ6wjHBN/a4f2HZSRlmZEBkfFb4pbDzxArQMncOW0Rm7gz3ghLhgchM/BPUheV8LYPe1+uE8ih9leSsAoSEklTJC7FezmOxMPEoOMcAG4FJkRSAPCOTgHIf3oU3QSUUVruA5AKCfiACp1EVeICMXa6ttvgIWmkW2h0S0vmUj0dDSonZ1+DIatBuiTFESL5+WPlJ8MFE1Nxp0FB5ank+Gzq6gss5WMQYMG20TxLHonTJ79JhT6Wldbo4MH9isyKlodOnS0uo3aQ1Y78XkQGIjMhIEojKehvs7WrtkFyIrRgIGDbKuAgx31088g2Seqq23ZtCD/kE1Qxy7Z1j4rTiAshiEECWehPiK8QTT6gZoBF6Y9Itx37zugdnEBjR/ZR1UVnr/QrCq0Zr9f+49VqSIYpa6dOigxpa0XqBtCOsdxgQFSy5urRiMUcADjJirC053Ts7JUUVllgSOE3PXr19dwAaQE0ZCuqBizZs0yNQ/Vg+jyBx54wLJKMBbwBclhXN4DuG3m/y//1q1bF0xOTmb+/p+PsP8m68P/z/P/eS/ZFywLAxkfAgHLbpCdnR1MTEz8f+7Tf9b5//Pb5/f/r+24DBZkV6C/XsYIMkT8kS3Dtcm9ZJCIjo62LAxkYoiOirbfPt8fbVEXGScss4XLQmGZMiKC4eERlsXB1c8nWR1og8wZZIZw7f1vn2TboE9+v9d3155CfXd1c5/LRvG/1dn6ekpKSjA2NtYyj/D57LPP/hc8a30iQGgTyZucrgC1gbUcN9xwg2EvIgGqgRuC+Yhs7oOioVioANHLUiCiDd0SSxlNEo5hnNHvLRHxHAYO4hZFGcr2iAJqJFmAFBefEMqr463JYq1yF1yCxEP0zXxcjY22kR+O5BkD3jzQT3eECK7lN+Ok0EfC9+HWfLcS9PqLjmSiNGQ4sVsZzuAp916Uu9Godd3za9Y31BsX5hTjtnGaQ9xzIMNtnZuEZ+EG9Jl7iX/GWjdpA5xpNyLCvBHc5xltWPrevNBf7mUs+GH5xH3mJbCSSZQD+/eZ+sFCwwknnKSOnTpavYh1dF/6a6LU94duR9+xeVp8wbBI+kkPidIPw5/q5RFiTvGJUldlZbmt6SOmkYioGEgIPhHLzh3UsWNHUy84D95QGIeTFmGjRo2CSu0CJ7GosUYRu7BbMoz99JO3Hsx1CsgAANANzjvvPGuQkCkW8HERXHzxn6xzRE0b0oV5vjUG4okeL8aOwRD5CxAMsA0NOuOMKRYL+P3331n6EtoDCEwEOgyIwQoOyHHWWWcbm1+8+BcDrokVAjvsGU+VoF4ml4IehNqA6B48eIglZtq+fauOHStq6Sf9U5i3WR6iKSkt0cgRI5TStp3WrV1jFiwWJsgaoiNvskhOhf5IJ6yXYSqvKBe7/bp2624JsIApqOdNAONC//XuJ2h1QP9+iktI0s7t21Razj4en7XjIaPnhMelw6oQ+hr1UReJB7pmd1XHTp3169JftW79WttrTbQTEeqs1zPHuJrwoU6cOMlcTevWrrPEUeZxMALFoIQwPQQBFtTPb4Ntc5My0tMty8W+ffstSAP7Yv369frzn6/R5MmTbQkZFYoFCvCDiCaWlfGmtE1pa9s5ikuLlZGZYSogBMExduxYBZgswqSgZApYiyEB5hK5jd6I1cPAjZJCFhfUyTnuJfx/6ZIlNjesDhCvR/6cD957V+++/749xyoFggv9zxAj5ABmsPQBSvrHU09rwMAB+uqLz023CDNdM8RBMVyIZTKO6hMbyuNjo3Xjzbdo3bo4PXD//YqNS2jhaNQL14BwGBtAhhMB1UkTJ1nM4KG8g3rw/vtVXUvqPS8jWAuGhSxq1pEv/dPFenb2C7aO/Mijj9rEQhjUj/4LLMiSZtw5ZJywmkKiAXIIQaTXX3etDh3O97ghRG2TbKAwBK2srNDkiRP00pxXLOD1sbvuNHcRxOzx2mbjQnyvq6+z3YEYXlTTpUsn/eu11+y+ua++Yuvr6GvopOh5zI+HVDK3XV1Nld565z2TZtfOmGEcG4lnnNuiwiFej/EwN/SBv04dOmjBNwuNgMadfrotakBEpCTE/QeegHTAA0kK3LE5KEt+WaLjfUrU3K5JB1bmKCstyyKeYHi0TQRUALYNhdIoiEgFICJWUpeOWQoE4ESey8dxUCcmXEVQAAEKrqCkfvvtt7ryyiv13gcfGKd11/6nz1GjTrA8OLt2bLe9JYfy/1jn/p+eeeyJJ3TOeedp7Nhxio5+Qhs2eNs0/6f7Oc8kXXjRhaZ433LTzVq7/n9/5sU5r+jc88+ztWII9Kuvvvq/NdFy7aEHHzCEuuuOO/Td9z+0nP+fvrz8yqsaf/o4TT3Ha+vll1/6n279t/OPP/ao2rZtpwceuN/Sz3ERZGBe/rvywYcf6sILL9KkM6bY/vHZs5/77277L+dmXn+dxa0+9fenbDNW6xswcCngCG41EAyjFHzie2Ndg/J8hQoPxktRfsVERZsnANzjGWMaVMIXx6GMytnmiRO6/RQlhPcgKKqlXR6mAQ6HvDTWuixdutQ4AjGAp48bozvuuN0iqFvf0/p7dpcu+vzzzy1NyEMP3K//GyK6tnn+6NFjevKJJ0xPeXLWLMtO4NULHf/3Ze7cuRbh88H772nhom/sJjg+1h5BIW4s6D+cA3mBz/0PPGhhVC+88IJFIrnaeZb90xSI2OlCN97wF1108cXaumm92OjlioOf+zTLMzHBxsA999z7Vx05km/BH6eccopNGI5m9C2CCrA+W5exY8bo2hnXWfgf0enUy0FxbbjfqCnyB4Sr5/LLr9CWTRv1t789qtPGnGb3M5+dO3eycTMmHPDAmzJ08GD9+doZJn6Jz8TXyNhbF6QbbTm84DrjAyaByIASD0YpPjegNoEE+SMCBm/sDeALM/R37dr1EQwU12Emo7K8TOGp7dT/6jlqX1Ct/bnfqq7uj1R4roMYMLh2eJ6wLtc53DFk7GJz0dZt2y3glrRrCYkJys09aIaLGS++MLVNbac333pbgwYN0Oznn9NLc142twKDdAOhPepG50GPAdb0l+ubN23WlCln6JRTRquNT9q1cYM6xEUqqm266Zo8x4BJlEkQ6qOPPqqtmzZazGRZRaUBAUCAdBCkc29AlE7ccB49mv3DY8edbnuj0aNx6SCOm8jwKplLCj2YANyX58xRXGS47rr5Bq1ev00dOnY0sUif0eGoE/gxNjiDYwo4oI8dydd5F1xgPtAvv/zK9C7uxc/olhyBT0ZGut544w3Tsf96331aEcozxHhY4XBpBUEOpFtCXIwiUIvYSE9yriP5uuyKKzVh4kRt2rxVOQf2q66m1vRI+oOvlX5imD7/3HPm//3nP5/RZ599ZuoBSOQKe3twyWHcgnw8xyf3cG7l6lWqLKlQdUGZqupqzM4gZSDr1KgRvXr1UgAFFIDwkKNqNIaEYLP61FWqyU88gDdJ3EMj7n6nF/AcWVoBGMt4RH5b5isFldaO9dyAPvn0U733zjt65umnbfXEC5WQRUTjkV+04Gs9+vAjqqv3Bkid+BBR3jFAQBasRfyY6J9cZ3UIZZl8iQTW3nD7HZp+3nnyMdGBCDNUIAz0O5CRgWOFz35hto4WHbeUz/js8ABQP2H+DvERMVi4TCQUjw719D+f1dlTp1sWsjGnjjY9000IzxGpQ3ukkmZdd9OyxSrYv19D+/bRkBNGWUAsOjgp5urrPTEaGUk/veAP6kIP/ezL+br420WaNPkMLV/2q0XpQIDAooXnh3np/DBQUE+Wr1ihyZOn6KeffjT8YLMYa7/sN2cMzFV0bJyiY6rUVFOtuI5d9OOSpXru2Wd02+136vPPPtVBMkOYf8Nbo7e2wgi/i1KPnj3NKH39X28YjJyq5pCRTxgEcIAYYGruN3NFmuyLL7nYRPe8efMMQUncAGw9w04KuAf4BNEoQai1uUmnxO5STmKeIiITFBHhIQkNcZ97jt+Y/Yg4Bgzl8511zKzMTLN6S0qPGcBfeulFDRk8wJyodBDFGIQqPNJfBYVHlJCcpJLQxikGS11YepAhe0agMLgISMKKCjvwcGCz5QBds/BogbZt2WLOXRwHDAfrmckgirm6okypbdsZImKNQzzkuyGK+dAhb1MWwESPBhmxukEOCi4guPLhQwdVW1OpPTu3GULBeUk34vd5G84waHBn1FR10o78Qg0a3E8NCiite0+zzEF6G1doZchl23CcGFcMIWVbt2xW967ZKjiSb9azOeIJw/MTUkYmj2ZVlBarvqbauHZiYpIGDx6ozZs3mihlflAzyOmDBY5hlpKcpMzoVOWXlqszFv6hw9q7Z7fycnPMMi4tKzELHuJFcgELgpiDjQ3au3unioq8lRXDEUvTZ6Cxf+ABfaNAVPymD8CHT1bE8NSQC55P5gSVg4N7QcqA8xka9ob2L9MOVBgXU6G4OBRTb8sn2A4iclCZow5yrjgKZIIJ72e1ApGMGwbKz8hI05q1a7V4yVIlJMYbcjDptEsg6cQJE3TmlCliow+FQdBBAMPkMIH4LpHRICR1ArB2ae103rnn2OrNLbfeoV279xhx4BYhVw/bVVnpYRXjpJNO1F133K7rrr3W9jSzVu5xPWvSxsWYmHgAFPII2UUAfNttt6hPn9568MGH9PY7bxui2qQRalddo5RQ1jNC2P75z39o2OCB+mXJMjMqevl32g5MJBF1s2Zv/lminEIeBQiApPrAgujnJUuX6oUXXzLRzIoIRO+FmgUUExVjsYWXXnKRLr3sMi8TW94hc18x+cCJPgNfAovhxEiRTcUNRmSxRwvN7XT5ZZfbPD31j3+YOoALDRggCXBVwbmxlMePH6v77rtf1113ve776302/7SBT9YxJ4eANlc1NTZOgMd5rGr82T/++KPNLffgxWHMcHeDO9yMgwopUIP5mbDIguR08RDQmxzPX8dgOaiA8wwYlw7LcjTI4C84/1wLTfriy68UbPYoBS4Dh2Otk87gwEZ8Llu+UuSjOe+cc7Rq1WqrN6t9lrF6OAnimphFkItN9uSfYeLT0tvphJEj1b1bV7366muGiGQSIwiCAAsS1MMd4IogY25entatX29bLe+88y7bKorfjI3t6HxMNARnG55qiMzxGSIQtQObPWfaNG3fvt30YLLysmcItwYunciooEaMHGkBC2xxnfPKXL30wmydNHKYcvbuVklxkWXYxQEMgSFCOYAdiELK46qaalvumzh+nK2RkxlMYT7bbAXhgIwsSzKxaWwHqa3V+g2bNXLEHo07bYx27c0RIf1sn/B8uh4Cw30YF8gJLCAI0hU+9ugjZhj987nntW37DlNVkBhwXVxwcDCWdFG5vln0nfknp551htas/d3C8IjFJGE9b7VgnmAgIBd4wbjAKwq4AtFjZYNn9IM1dpsbC84h9WH0H4mfjE22CvosLa/Usy+/obNPP8mogAodBTik5RzISAG5khITNG3qWfYZEQi3lQDWe+MTkyzfDAEDZLwnO3/7Du3VsWNn0/9A5EOH8tU+M0O4KUrLKszNhdLduo0OHTspPZ2trJ+pppr8OdKIYYNNpL3/4UfmVwOp6BPij0Gj2JP/Gn8Y697r1vxmYm3mdddq6tSpofXoMOMWIAmiGOSANCEU1IHaulqNGjHMLF72UOO/GzCgv8X2/fTzz8o7dFjhfr8FEhw7WmRpXpYuXaalS3/V5MkTLUJ8y5atqqqs0t333GV5bqoqqqx+nOeNoTaQLjFRUbYl9/c1a2xiTxsz2lQVJBH5j2LiYi0pFYQDbL9Z8LW++PIL3XXX3cru0lHZ2V3022+rDZkJ2QM5GAvzg0RBEhIYTJpm9g7t3bffDMapZ59pnLKgsNCuo5Z069pdXcjlk39Yf581S6+88qpefHG2HvjrX7Vu40YLL4MgeSsGCI7RA444ZAQhKXzC5FDf6AeEgTRFqkBYGIE8F+Afh3vA9ARL4lSp1b8s0JljRxpCcA+I4ZCydSOco2Dp4XFvl5piE7Pou+8tkpkVCyaCOkAKopd37NqpjPRMpbVra4EKGD1JiYmWCg9DJfdgnhlOAIVlQLgU1l1DPdHZngvFJioQ0MefzrOVEQYJNQIM+lRW1iB8Ymwa45UXcGw2W9XUeNnSSAEC52YpE2nARPEcCOgP94eCixuMGIcPGaRF3yyy7Q3xCYn2nb5lpKXr6NEi2xdCEEP7rPZql5ZmnIBUIySTmnLGZEv5UlNbrY3r11s8JFHtIGhzkKAR4OJF1HMvHIScOyQTALQO9hAKYz9WWCAvCDZo2SlIbcwKRo8ePY3omYumJm/5kO8YgIR88QnnI3BjxrV/NsR/d9EiM4Dgnhh3ICMBtagauQdy1S33gBFo+/ZZloHi3HMWa/zEyUbYO3fssFhPYA6SoaJRIBzHpIAn88IqDFt+MayI8oETOtcZ46UOc3rTQVgsB8UT1V6lVOQQlIoBDA3xncJ1zgE1okfYXUY9pBwhqsNtOeBeeyS0j8Nrx4t9AxEA9O5de/T4ow8Jv+Prb7xlKX4TE+NNhwOhEQcgNUYJy2wjhg3RytWr9fPiJdYfp/+BVK5s37HDVgYQ6+hd9PG3NWs1ZMhg9ejRy/ap/PzLz3b7FVdeoVEjRhpgCJ1btmyFGUvsYUaX5ffgIYPtXizY6dOm2wt+duzaZSIXEUyoHERD1jGWx0hMX19Xq4hwv6686mrt2LZNrCwVFBw1p/T8r8nKABdv0N8efdjGjth84+13WpR7T21ifR4eF9SGjZtNJWJbA+cKjh4z99jcV+folJNO1Ktz5xpCg0D0BUQn3pMZw6UzferZGjZ0qJb8ukwvvPSSGS3MIXBjPlvPLXo+nAt9k/LCiy9r5MiR6tG1m2VLI0ofxDrppJOMAJ0tYTfT2xATg3M+/fTTVj8SC+IBeakX9yBt+rOzsx/hhEM6HkZswl34zhZEfIicc2yX8yAoIgBfFpHhhQUFpruxgrBh3Xr9+PMvBgjXKT4tLs+scWedenuvqQtA8MqKtHZp6t4t27hZVFSMuWPwX5Ecnmtk9AeRzjtnqiHNy3Ne0cGDhzwCglgAOak5wPwQwWCMuRcWlZUiuuosBGvS+PEmeklOCmX/5S9/seUsdL7zzz/fjDgy3LIOi66LscSyFa4I1mN5CQ9qB9nEMEaAWU5Ojg4cyLH7L7jgAstdOH/BQrP8WdXy9gRVacnSJerWrav5HHGHnX3W2browgstfnTevM9Nf0UPIwE++6zZS8NvfLps7oIL45hnaZBIbHbuIaJPPXWMmmwzVJ1l8CVpKshCEn8SIAzkVR3XXGOulkf/9jezvNGnYUjAYOjQITYXwJ5UgOQwR9wjYvm9e89eew0K2TJY3mQ5GNwgfxBcjwIcQErwBByBSaxZs8aIAhwC1+g7xAt3BBHxjJiY5gawFFZNcZyvNaulYjCawsMc3E/KDlgwG8uJvGbg6FokgnKFjnFvfX2dIbRXj9v912idYmEdhDxSWGgdZJNQxvnTWoIPHMLWN9QZkuMCOVZUZBwGTmwIFx5QQrBJhH3kNYdZsABjYxxYfUmpbQ24tP/Tz79YXu+B/ftr7pwXzRqvqmkwwnv33XdtfZ2UdyAa+2R4hj6AjDi8oXRH2bixaANDC18m55lYlkRZn967t70Bn7VbYMH6LZlhQdy/P/m47f5DP2YSP/r4Ey1fsdLgCMyZOPyfXKMPjvsD/6qQ05zz1XV1eveDj2xv84w/X63jxSU2R4wfFcf2wTUHLfg5gbSF877U6t9+N2OPOXPqJl+YYAAAIABJREFUDfmHEHSMDx2W5zkQpY47vvXO+5o4ebIuu+Ri28z17POzDSEdXvBJn6gTuDAOvoOs4AFObuqCADjP/PEZAMA0xNITDlmwnMpc4TuVUVp/5xzPukVyNs6TRQK9ZMCAQerV8zft3LXbnjNkCaUyjojwdsRB2YgQCkhIp3Ej9O5JpttqPfv889q4abNNKm4aHLDN/JG8MjJCV111pXr06K5RI0fq03nzFJ+UpIzYaA3wN2h/XZiKgn6FNZd6ga8htQJiQFRTzpg8SYMHDxL5Bd986x3b18GGe7KaXXPNNeYrRKwQ/Q4CoQsjiuCaiCmQBK7Ie/Cuuuoq5eTsNxcJiEn/OQ83wbq9++679dBDD9mqCPWBhBAxnIHUdKUlx5XdJVvXXEMypistOy6vL6FdYAyymK4X4jb0300wlnxlebkhGYlW8Sn+vnql2oRVSQ3VFu1kbhpC2JobVdEUpS6DT9L06WdrwcKFxuGTQ1suQAhEMvPF4bgl80N7Dg+u/fPVJqVefHmONqxfZ+NlXloTC/12/eQ8ljn1QExIEXyx3INHAR0S5AyA9Yji008/3YCDZcQCu0NIPh0Suu/uN50DiShYamRJWL5ilbDMTh19irF0rjM57hkAS5bWclvVsEfNKqSu6dOm6ewzp+jDjz7WR5/M8y62ssYIBmB99ciRw6qpnat/PvOUzjlnmm0+h6BqouPkz0xV57o6lZVW62id964VJhXOwkuMcFvAla6+8gpDsEcfn2W6KY2RlAlROWL4cD3zz2c077N5lriTwA9UBd56ddFFF+qqq67WlClTtGTJErEL8bTTTtOHH35o+RaJZgbgLB8ikpkIuAzwAXkhXiaDtwtsWL9Bjz3+WMs4iUgCca+47BI998KL5obxkMCTVg7W9kBo85jpg1VVmjZtquXBWbpksX7/9kM1+aJUXnxcDQ21piuG+yPkC/epW/sMHSut0qRzL9LVV15pSflBPBCDvsKM+A68KOiknHeFrMLTpk+zvTNz575mCMs1F2sJPnm/vf1SEC3wgCtCiMTPovKAD+ACcKFN44zIdOQ/sh+5jwVHrkFupgAMvruj9TmuMRA6gN5BXV8vJHd1H40+5WR7USKiwD3DJyKchlsXtmCi0zAJiOs33nq75TJ14ziHi2LYIJ7xt7HmvfCbb3XuOdN17rnn6o233lJDdaWW5Xk+rgh5jnkAQb+gSscVb5h5velG5M/hPShGxWFhuu/ee/W3Rx+1toEHBYS695579OknH4ngB15MyQs0ATL1AljgAEd0KwwQH8TRs0cPzXryCZtw6kMEAnh0P5InEQPaurzx1juaNnWqrrtuhvn1SP4OIfEMCN26AEPax/OQmZGuSy/5k22y37TsGx0qLtE3v/6RMbj1cx3iN+uuq5PMgh4/YbyWr1ylBV/PNx2U+0BCh4j8xv/pCvNALvCIQISlooZzusIzEAuwAJ5O2nGOg9+kN4EQMQ7hjEgY4Ea+S6REAJ1o7dq1rk77BABUSqER9x2EdN/5hGJQPGmct6f27dfXXmW7bv1Gde/eTWdOOUOH8vNtQxKKKojlto7yLB3E0IATnzhqhDLT0/T+Rx9ZlDPuGFw6UKYvzG/UNWz4cBOn60OhYj98/6NOPulEjRl9kinIpGlGJwFRGHR0bIytEyMuUR9ALPaJTJo03nTBNWvXqU/v3oolgCAi0vZws2kKbsPmMoBIUiYMNMZ3/cy/WP7ujz760PxjwAbxDfLx3X06GN126y22RPfPZ581ImNNPdnSyEhHCwsMXoSk+f3h5iJBdfnxp5+M89515536+NNPbJ2f8UCMHvw9BgFBgozM35lnnKEBAwbqzdfnqvjwfv261kNy5pExUPDpsX04r6JZy39foxOiU5SblaXLLr3ElhvxwVK/2X/O8LPgWs9nu2P7dp122qnG3dZt2CB+E9XNmIEX44fwKcwrc+1whPPUzZxzHn2aZUEy3jo8uO222xRA6aYyV6iIil3hZjcgPqkU5OOT+whtYtBwVNZyEXHENm7btsPy7My87jrbyQc75hnEJPoF36kPTtkmKUlDB/W3pEfzv16ort16hBJWEo7k7VJjMvxhQfXp3UOffOJtEkcn/fSzz3XPXXeY3+yvDzxklMbqCzvZ8F2SIwagARgCWE8+cZQp7Thw2TGHdcmmKwuMbSZrRBvj3IybA2AfyS/Q3x57QmPGnKoHH7hP1dXeNlSAvHbduhb4cL8r5EscN+40ff75F/pmkZf4lFD9ocOGmp6EOwcOSdJRwrFY3qSPixf/rMzvv9M508+1BKk4v5lAk7Uef7Am0H9Jctq5U0fxEqOVv/2unb//opyjVaqorm+ZIww7LBIkWGODF13086YcdemwQZs2d9HECZP19D+e0tJlK2zcLOXiC2Z/OYUxwYUnThhnznjeQfP9jz+rX/9+5mvkzWckwAJv4OAgGnPr4Md3kzy8OiU/35gF4hkGQVyCQ2J++2CXAAXOxQkOiqNuh5j8dkhpN4T8kYgpKqeYVV1fp4S4OAFEJnJAvz5mZbO8h7KakZ5l+ldWpvfZu1cvxUR71tTb775v6XlN0a4os8X7Y0eP2dooy0cbN24wTuXa57UV3//woyFE1+zOGjvmVBEwEB/v7e2FO/IqDAiBfInt2ra1lZLly5dr246dln2LKCA2wyMuyBAGwuK8B5hY4BR8h3v27LU0eqwCIV4Qm7wMiNUYENks1hBHIUTs9ttusfG/POdVqwNdFxjGGRdm7bvRHPA//fiD8nJzjXODcUOHDtdn8z5XQUG+JetPZQefP1yREVHmuDfnfVSUJdMiS0fv3r2UkZGlJd9+qdracq3YRHIpb65AkPSUBPXv00tqDrMlPvD5eHWTtueVqWz3Ju3Zt0/NTeQgwsAJGswrykptywS5H3k5PG479nP36N5Da9auUe6B/YqOijS3HggFAoIbEI1jZga/EFODEDDayMYLPjmVhky+SFbwAu4fQM9B1FARFXKAyQ7xqJRrdnPIugOonKNiML81wq5a9Ztl5crq0EHbduzQ4P79NWb0KbafhfVSnNcmqkNtsIQYG91NixZ9a2vUcErqhoN67CBkxZOYNDVVDU3ogiwveeudIPwnn36mhx98QNdfP0Pj9u5t4byIMSx06iO8izeIwr0/+OgTW/3A1cJ6uUknfB8hInSA9X57m54Y49PPPGsGzJWXX2bGiCdR4PCengV3o//kfBzQr6/mvPqapZYGRmjg1Lvom+8YUEtbGHOkPyGQFS5GAMXxoiJLQc1eIpIG1NfXmvuHeQGZ2KZaVVlhXB8fMCsbKTF+VSRn66F7J2jV6jUaNGioqsoKlNG2rU4ac6Y++3KBKmrLlRgTqZpSsrOFW7a1A/u9FHrVFeWqqapWu3aptgIFQ6XfLIV279pNPXt21+H8I/rH08/YapOnynlbf8ER7gUvQLzWOARXBUE5YAruJVDgE9d4jsL1AADlCxVQGcXd4G5y5w0YIV2RicYc51k6Q/EW871JbZOcpDfeeCu0+67ZXvJIcCxIxGQ4pzTtIrbh0Fhcu3bvbkFukIjCJ9yHdVzarK2pNR0PpZeIkt/XrNPMG2+yfjf7/IrgVRhuvSIk/hgZO9mgQlY/AAYIWl1daqIjKTnZrHyoloyq3AfhsP7rjBkm5vrr/2IvEgrwetrQTkfqNmQLiUSA/MorUTpGcihecEkYVih7BpCibcYN7IAte1l4/wvtuj1C773/gVasXGXcis1D6M1uXkgHQ05FUk7v271d11w1U5mZndSjzxAlpiSpZ3YHDerbT999+7VWrd2i+d8tVa++fdWjR1/1aJ+oleu2q5G3ySamqOp4vhawRNnA/nTeo+i9dYJ+WHtBacWyZebFoL8QP9E8RBexbMo43Bx5TMRzAbnxgRvAA1WJczAA1qNBZurnHDjIfbYhi8oAChexAmnUcUdu4mYOuAMH91IJB9/ds3SG69QD0vDW08pq1qStv//Xf3DCYcNG2HulXX2wfzpNX6gbBR+HMevGsAgsazJ4NTbUeW8bqK7V0IQI5Tb4VMbrIwCcDRrKazT/JJE7LEURiYPhBGIwRuquCTmZWTrkGmMBFq6Q1wdVpLyywnYUct6ICq7XapBwY9SXTh06akiXjtp76JAaw6NsUjCwUGsgZuBEG0wOYh8EYKzkzoGXEqGUn38klPTgDyDSFumq6Tfr+b8sX6qG4kMa2S1Ds977Xh27ZCk+MsLyQfLK5IraRu3cv18RgUVKT45RcU2ThrWP1eHt4TpYF6Ok6IA2bd9tq1eWbJ/18NDGLPrIOjXvJWT1i1UYdER8vw5HgAN9ccTFXKFPgx+MD2RkToE14+c81+GU4BttcD1AJdzEwQ3uAhcpDuHcdz65h0l22M05OsZhyOgL04H9OcabeFEiVEQ9FPeM67g7xwu7I6O2qH+/vtq8Zavdy6RxUC/PoU7gTuDFj3B3QxhLVORTeFSM0tSkjvExSqhv1prGgGX7x4pErJOYCQJJTorWgZz96tS5s0Uug/Cu38CCcaNr0r/WYwc+7EWhH1jYrqBywNmbG73c5GYooGqEspKlpKcpcPiIfCHxxWQwCdRNG/QLRATc9IPzpP7jPtbiQVB0evrurtP2saLj1gV0VbK27cvJVUZ8hCafOlKffLfYdc/7DAsz44IfxaVlivBLmf36amVulQJxscotKFZFda0tPQIP2rR940GPi4MXvJsGSQQ8yTsJc6I/rQvjAYaGwCGp5uaZcZH5jflzCEi9HA4nfA5rW3MBKnOFyeGaO/hNJ/jkoBEOnuGTcyBLfUO9l78mRB1QiyuufjcYQ4KwMBUdParu3boZtbt26Cj38UkfUAXgogAFMYuqh/+LBEyFtY1aXlyr7eVVKisptv7U13s5D1kLpU4sRay6+NgYM6QYPwBhst13ftMnxuMKLhkQDcIi2ILCODhYcwZ5cGrzcnZLg+IPWCrmuoYGZffoIV9ILDEODvpisArnlcgkYq229ojbZPmR5VQykTF22nBwcP1xsCPChiALlh0Xrtqonp0SlBAXa2qDuzfUWauH7+P7Z6mkTgqLbaMwXF4lJXY/7VifQn11bXAejgnxx8VEG7FQT2v4uO/MkfvuiJt7IWZgTF3USzuMm3vcfbbtgB8U1xk+OShUzIN8crh7uMZ5MJ/KmRCSxkPFKNfBpkYzVHjFLoVOcj+Hq4PvrlAPKyCrVq3yuOPW7eZExsoHCbgXZEG80Z7FOsJpbe00oMryY/Jznz9cPl7tFtFka7dsSUCUOS8BqdwIMN23b69F/tiGKsv9E7SNSAQm0BezEOlv6CU7RA+ht6LEu367PvEJbHgOfRZC5DcBl0dLyiz9Xlu2jrZOhwd8Q2MC0SgQLKFlwAd1wK1+wE2AX+vCPUwwbR49VqTuXbvqSFOkVq/dommnj9C7X7XijiE4A+2kaL+yM1O0NLdB8QkR5iUwHT6EIBAi8LX+I35Dei3BF+zGRPcjFhVO6RhMawTkOZ535/jtvoN8PEPfwTmuATt+w2kDTDBsk5NUwmT/Z3GVuYa4100A9+Jr5B7i+Fg3/uXnn0LuFNINR9quQJReAkJpmHmAQ/F6MuAEAOgMbhUMCHbYkamC+D8ifegXbx/AEQ7wWUnB+iQcq6SkSf7wSKVnZprrhuhj2kKpZPCIeRAX11CX7GyL2YNYLHqnpkYXnH++bWegjRpe+Agy1SOGPWsdDlxWVmLJ5nHP4MpAzHLeb0aM57KhX8QDgiDs0SGFHHoofSgvLda4seNMT21oYON/o0XNmMeA5FL49nhjRGmpuUwwmngXj7k88NuZToZ08piG5dy2+M4GE3t1dQ22GNAxM10rd+7Rg6eN1syLp9u+oNioaCNYDMfI2DgN7JamFVv3Kbltqpob6xXObsW27QxeHiL6jQiYaxARpCGjL0n2We3h/hMHDFC7dmlmPDL/rCwxrzzDJ7gBPoBbwIUDvILAQUbO45OE01KYe+Oa/fv3DxIcQEeohAtE77pKeIc03nJCgDhHZTREozyDrwiuA9UwCXAGUs6xtYBwLrYAMHEA3vPHeRyBOnA64w5h8mmbDnIeXxqDZacdCIw7BuRgBcMZDEyeDTAq0gYUFobLyDNsOGH+PwDUhGvGAyptAFzGyFgSE+INQdkCCjIaMH1e/hvuZXw8D9HQj6bQioTjZCCnR2Te8hduIrdGS/08T8GgGT5suA7k5hohQYy0h76HW4jJ4V7GxnnaQf3AiAkxUOOi/ACOxs2bGr2+hbgMCIuTn/R4WWmpGjesl6rKSuUjjYeNu0m+8HAdKCxXzvFqJSclGEEwOp5lPmkffRFiwwBjDMCE9iAuCIuI9omTJtm49ufsN3zAvYSLCuLhfpDOI1hPHPObujDUGB/MD5yBUVCYdzhu2BNPPBHkTaGcANGYLLfmyIOcg1uxwkIcHxgMwoAIHkDDRBBnz169DeicwxLDjUMnGKTnZTMD2ADjJh0xRkQyE0K7HHBALDXeuMUbCyjWTmhirD4IgYjukL+TSG3OY2XSNnkGsbZ5DuOCH1ynAGwmB+DAxUAoxLZNvU/Wtqe8kyGXvIZEYnvxlyxPQlg87ykYSAhvIkPVh1wxHpdgNaO+wQs9o3UHfPrDcyA83+H0fKNPhpB+zzDgu7uPe7kOhwJxmRcK54En6gc5eCAGDL39ObkGT0tuFR5Q3779TYJFseckAr3V8x17cwhheHuACGRYsHCB7a/BkAMG9I6+0A7zDrzYX4TxRQfJKcTmO+aPftEnVCv0dHCAnYEEmaBTgzuMA2TlO+2Db5YtGVeJy0RAJehoWHc0SsVEK+M9h6UCBCqCkkFKjkGDBtnurtqaauswOg/7oLm2bx8WNaqT1yiDwcXCVDI5xhnRMUKsHcOgX99+6tmzh+0cw9BATLOllcHReTc5bM4iQpiB7NixoyUIgv5ROfWzyw8uBrK7iaMOxsHrQLDusAwPHjxgohzk5F7gwHMe0KLtJZFV1dUWh+dxKg+Z4NSMCf8luiVRN+iwtM4YQQxWfkjKBGKSQ9ybfOtO6Ds6lJfMk6wNwAuXDn3hecbe1OhtrAKZ2SlZX1tnxhFMgrngYIcdgSSsLhExz7ttCEBh0vv06asuHbIUG4vI9mnkiJFiYxdhbEgN+usho9+2SSCOeS0x9XqAa7btyyAb+jdJm8rLK+01wYwfyYK7jAgmcAbYAWfmDCc3CysLv1moqECk/PKprLZCFWUVlp+cOqkDPArw0hgWrF2BGmCjrmCQEFaGQk3hQQqVgHA0RP7q5cuXWSdYHWA7IknSed8eb0bFOoyJxkKsMuRBXDNpcCCQE2REDJxy8sk6fdw47d61U3fecbvKyisMoZha2z9tSr5nibLf9/XXX9cpo0ebGjH/q69sDzSIBCAouFfIYgFSwtVALvqMZfzCiy/aMtiTT/zNQt/cPWC7ccsIfJx+e/vp/6HsLcCsOrJ+79WutDfdjTWNNzQuSbDgARIIIcRl4jqRyUzcyMzcGESIu0xICCQ4CQka3N0laHBtrL3P9/z+dao5yeR97/2KZ7NP7127ZNWqVauW1b333mO33n6HbBa/+mqk2BHaLBaCIzrE4ph0zNQP1ebOwBAskwH82yMPKzqvnyCEQHQ8tGP2CTB1w/XX2n0PPKjwJh99+JF8czgCl3b7CcJkhFAcO3ZEh3oSX5zB/+zTT0V5gMOcuXOFCHyH2V1cfIIRloXvoEB33HqrPf7UU7Jgf+/dd7S802fqQMDPd/7yBAAKjg/R+++/L/+bR/72iHCCvh86dFisD7jBCssqxPcQCix0YIvm/jLX0nOrW3zNZDuwcIdZTJgiDFMn1BOlB2ZjCsKZmJiooJUEeCSgZbXExEDb5vmBp55+ItCuXftAjRo1ArVr1w7UqVNHV61atfTd3XffHejXr59bb2ixWWDo0KGKATnuuzG/e641KZjnj78JWLl8+XJ9d9WQK/+fvuvfr5/yb9iwPpD6/yOA6JtvvKHv3h7x5v9TPY0aNQwcO3o0cPTo0UBunVx94wN0/rEfoX//9b77VM/EiRMCBNwMffdnvzMy0gNbN28KHDp0KNCmdev/a35fxj133al6pv38cyAyJMApwT59ntB7bHRkYN2alYHi4uJAv379lccHelVg0GCg0tBv+H3nbbeqnsWLl/xXuS1btgxcf/31gcGDBwf69+8f6Nu3b6B79+6Bnj176l4rq0Yg795OgRaP9gxk1s0JNG3cJNC7d2+969GjR+DFF18MhPs1Hmz2WApFKA5UWnF2K0tNqmmBgON7WDrIT16WG34zGzw/JnJkZpjtM8MGDb7Shr3ykpzzIdmiVkFehzqY0SS+f+utEQqjN2rkf2QooBd/8h/LDu0g/Th1qk0YP17L0EMPPahn2iQhjK3aJDgxla/rmmuusYceflhh515+5VVXQzBSA30iuaXUfcffW7duszfefF1M9nvvvyeqQ9/Jx9JJ+5nd9JHnJAxAXh0+XMfQvfHaq6KePOc9qw35SXxLf2gf7gWcdc1G4ONPPqnKA+uEUQiyTA9rX3+NnCx77vnnVdbQ558XT0weds+UybdcAIT2RcfE6mzBxx5/UmMHxaxfv0HQUEPFiDUCzq4cB5Pq1TPtb488ogxvvP56VTvcF55vdn3xsODucSYiJsoyNlda8tpyS4yKtSjCugRXWeAI7kVkZWUp8JN/QMOL8U1IjLFaj0y1TtGJtmLZGCsqdswplQMIGgr5ZSfO0odfgwcUvAxL5LejvzW88/Lzm9rgK66Qz7L3jZHWItiYvn372YgRb0qTcP99f5UMy3eSdvkBpsE6zSpkKcbc/6Ybb7TmzVvY6qWL7OTuPZaAQJWprA2CK4mOs4P7dtS3CgBw71132qKg4S/tZuAEkCDP4wHl+4TdIG6knTt3sX2//aZjeskPu0LyrIG/f/ThBzoS7tMRw+3rz7600uDGB4QAqfy3DBjLH6SGstasXWuNGuRZn0v6abCwJmcpJFYNS59PfM+FX3i//pfamDFjbMSIETrZnrZTLmMJMtAHuHSMJBqlJlpJZcDWbtxsMRFhdsWVV0pIP3r06Kp+UI/vF3WQbrv1Frv5L7dKDvzKK25yeRjxHpEXLB7jxUWiXtpOPpbs2ECUlZ4tsZioWElW2I/gMwTrIONaPuJjBoOP/BWBloM4M5E4aZ3nw6iAy+ejsQwAMWvgA+EZiBTx9jtvS84WERZmU6b8YIMGDLC3hg+zNVt/NTVVu24n9GSnxcbhuWee0qlQ6knQ8Ty0Yx5AcNueCi1btlwDcfNf/mJvvPKKLZvzix2vDFhZZIycxCiLASk8WWiX9L3EGjVuZN+N+VZ+JkwY+FaSRyJ+AwuAGJpwOn/5pZfti/98ZS+88E/Lq1/fTh4/IVELO3RsEtmsAPT6eXXtisFX2u4dO2zRlO+tRno1q12zoRWdOSXvPiYFExYYUm9JELF8fS++9Ip17dbDnnjiScGSgyuRMDgeGxGcm2i1a9WSRyPGIlA4+GrxxqVlQg6QnvEoLS0RnxtnAWNc47HCysmxL0fiWNVfcTE//ugT27J1syJxgPhsLmkbbUxOSrIHHvirJgPnZx86dLCKQPg2cycvuEHiW35DSHw5UbHRovrwkfCv7FcQF3ERYFa66VDk0m8LMxRKNyQWWkrYOQuPQH/rTooC+ajUIwa/QZgm+U11KiiDER/vDgNKruZcLUvLK23C5Ml2w403KjKBwp1gL0jjcSg6fca+/XqkLVy0pKpvtINBI/lOkQ+AV0RW6pQARAd0imN+idOTf8FFVnBR56oy/vgDIS6BlD7//AsrDPoBAyw/ocjP3yCvpwi+DJ5NnvKjbd60QQ5njz/2mH/1p/eSkmJRkbMxada4zUVWo2ET2759i61b65zMPLUPpXYURP8INTJpwnjFQ3z0sUf/tHz/kF08XojErUGEguQDmCLTA37akUP5kRJYuJ2LxIIowlq3aWOLFy609957zxo3aWx33Hm7L/JP7xzWicXNpEkTVC5I7hPj44mGp6rAjz7ynInNWEE9EQ9CSJBigEO4OrNhZuceCZA9FlMAGdlZRVmMtcvZr/gv0TEY3jq1H3kpxFfCN/x9DoF10NAAP1t4KTQeREDYsH6jBNkvv/ySvfvu26ImaEW4aASqrNy6nN3S2A4cPKQ+Ui5sAB2FUrHsIEdE9sg7dqwAmw7n1Mi2n6f+YDNnzbIThYUGNUagjMySbz3PhDXORRdeaA0aNDSzn1UP/QlN/P1Hqsh7gNy7dy+5C3w3epQtXLRY/UYKIF15WLhYCL7HoIKQyPGJ8VaRlC79b2J8rPxJkB4wgf6IhL4NwBABMDz14kULbepPPyu2EDtvVijgjosE8EBo37JFc4uPi7FL+lwiZy+s3N1BUC7uI3kRxkea81MqPFdk4dExlpqcrDAzhOfbvm2bzZw527Zu21qlvXKrj4tRBLFr1by51WvQwLp162GTJ0/yza26M04kxgN8YIy4SNwZA9x8R40aJXEPvuXk5TsQFaImv2l+CAmD6kAMRCXbi4u3s8VFMk5ggDzF8DPBV0jlnP2CCwMefiABYeaIO4ODPTMVo4a9+34zNCUY1KZxyGNsvEVGh0kzwCBihIvNIGcMos1hPYJSUB/yRs5m5rBK1Gx0HWTlcMlOF10g07LJP/wo+0EMJ4iIyQKMj0z1nJriywAM3nmtmjeze++5xzBBwxIcwTbGHfTD/XYOYCA8wnsEvFicFzRtbBxEtGXrdoPaY0qFKyqO9aSatZx/NLBCMDzkyiutY/u2crklogMy3fymTS1VB8E7/Tr1QbH5hk0DYpK8vDoy61+/bqNt3LRZyMtSKw0PB85nZsqca/3GTTo+7uqrhtiQK6+Q5c7335fZypUr1BcvZkEbxtihLQKJ+X1g/wFr3rzAevfuozo5D5HNDUs+allgAQJlZeVIlfrNVZCVAAAgAElEQVTbnr320IMPyPOTTToaGvQJBH6CYjJ+TDAQjMSYgVfgCL95z3LMe4c3Lr4k7yiL+qpi7fCQWUcBsLv4306bt9Ia1M7ULOW9Rz7ycZGY5XwDYpDwKUHH6o9c+/TzjYoexmCzS8zNraNjfwnNUauW85/BUerI0cOKNPbQAw/IKjw6xpnBU6+njAcPFNjiJUvkfE7H4bsGDbzMMjMy7bWRb8pgAECTeA9PhTVLrZo1rbys1M4VFctJnxNC77zjdjt45KgO0cRej/OlobxQHwdAF4yev4tLS61xwwZWPy9XLprbf/1VAl5O3t27J9c2EGOGZSk8QganGMl+//04692rl/yAOHsbh3ioet8+vRXdgjaCHAidQUT00cgM8+rmWudOF0lgvW3bVlmNow7F+JZNHxOobm6eJSUl24mTx23tmjWyAW3SJN8Sk5Jt9aqVQsYDBw/IugY4eKTwqkRWI9wGnn3mGcmDcXMgH4eCZqSnWbXEeG2oiK9JPKSTp0/Z6FGjbMLEiXbjTTcqsNXWrVtkHIOLCUYTjJMmc9Aghr+5SMCTMQQhHWzPeweAR36ChEMR/QDSaPciWoYBzz3xsIJj8v58hxzPSKEkX4GvlJNNwVPieS9dulSnimakZ0jaTqxEkBfGH1324cOHgoEwI2RljAVzRHiYZWVl2pkz52SqhX8KXn8HDh40YtRkZDh/CZaR5gUFiqa1DA/HFauqlgiAAiAQssOPQCHOnSvWpIqJTZCn3o4d2y0rI8M4G5uYQCxtSAUwlcKIAwThEM5Tp92GLC0lWWKTceMnKjovx3Ds+HWHygZZ/AQFTsz002fP2pf/+UoRF6679hrLrJ4leEmdKI0HUR4QDSVYUlKKoue6GEINFMpk2bIVCh8C5XHUyikMMCbGGKSktETquJyatezLL/6jQAA4tmGsQuLoN1glNjEoJhwPWU3jy8pCLPBOHS+Syy/nGuKeDL+JeInwKVBhDkVH5YpNaoNGjezjTz+z3Tt3yYuzceMmWk1piwuc5aQB9N/jBGMA7kANoYpo9njmqSQiLlgSNGhCWF5ykbjz0F2VZuUlFiEvAfecikg+D/mpiOfwOHjkff31SLv+mqts566dihPtqI0++7/+d+P112rJIybgSy+9KBUfnaF5DCLML51H7cRM7tnjYrX5hx9/FPKAEKH9gXclbiO7e/jXTZs2qu3wWbioEjPxlVdeqdIucY4gFAcqv3nzJmlITp8+ZRdccKG99ebr8kvZuXOXbd5SIoQmGAA8F0w4SzVxbXDeys7O0RmFBKVCfNSqZXObNauGtCacNNC4SRMh/vp165ypmOZ1wLp06WyvvvR/bN36DUbIkJMnC4U8oteV8IturEBidrgMJjzr6VOFiuc9cODlCiAKgWFckHBgEkcCGWADoIqERCaeNraQr78xQiI1KBdSAai7YBgeptCDAB8+FgQiEb3j7488YjNmzpbEhGcgPKpZ8MITAvLTBu6My6FDh2zx4sXKw+TCh5r3jCMTJZjPLbe8IFEgyQ8qyASy+efcfcP4fZ4iYCFdzXr26C6+a+68hb8zxceKhrwkVGkO/fWn+EJ+zZg1W55oeKtdf+11Ah6bKWKCA2AU8zDkUDsiVjRu2NDmzptvGzduFuIAUBCZy/XH8SvwsMjA8HMh4QC1fv0GKysptltuvrmqXUR5+M9/vrTPP/9cEbOI/P/Siy/a888/p7bt3L3Hnnr6Kbv77rul137uuWftoYce0uwHIQmU2rFjJ7Ei/P7iiy9t9Jixdtc990r+9/RTT8vKqV/fftapY0edQIZ8DVaAAb2sfz9FC/tp2nQrKS4VwtEPfL3hjVFjMhZQNpCKgKF5detaWnqGjR03wQiDfPttt1paWrpYGHhRNkxQJCg9KwRUfMCl/Sy/ab7hFkwgAQVdQrRXQTDXZC3ViOn4hme0AXwgTZg4ydavXyceFepIok0eJ/jNRWK8+ZaLZyAhRhysjpQH/vB3Fc9IITz0l0oJYUDBdN75Cn2j+BuqBUVgeQPB8ps0UhxqDrfesXOXL0oVSxctDzynGHfI7nwtYOiPHSOI0yFbvXatBKCtWhRYQlyMOok+NyzCWf+wmeDb6hkZWl5BRjY5pIRqiVYnyqywMsyOVpm6OWDRzpSUVFk1I68bNfo7a9asqQIA5NZ5W2b8idWq6QgQDvIEyZ566ikNCKKTjh076jebNJYVBta5CzhTMwDPJIHNYRBpI++JEMb8zsvNk1wNysNRHMAMfewjDz+o5ZTdcv36eTZz1mz76aefVA4zFtiDUNExzlLIjxfjIkoWGaVoHDt37LBPPvlM8sDXh78ieSebPkgLSMmGFL4UBSEBFohj9M2ob0QUPLLRB8onDjg2BiSIgMcB+gTb8tY779q///kve/Cv99u8eXNt6s/TNDnACY98tJtEmR5/iFgCbNDO+b0G76GOfKsNDB/RCE9iHaKE0i6VW4XNvCdB9hkYsNuZZpkRsbagoIXlZM8Sn0c+GsNu0NnvsXMHyc6Tfle6+18O5JXuJFSsf8rKiFzmfHToHp521IFgNkwnjjprnvCYWKufGGs1IyplmbIwOk5Cb9gHOkqAUERJtJ32EBSe4WXmt2rZQjwswZawzSPCBiZzBMNCMNutWzdZuOBw37JlSxmOsJQDMwAJlWIQoL68B+DwYExKeCKWJNgWkJMyjhw9om9pC8sbqjZCIjsk5kzGIgvEg0ROhCZEP1noLHiCy6XbjDj/Ed4jFQA+LOHYmBLQFAJBPiF1BQJp02lg2Jyy5HsJAisKbQFO8MwgItIMynVmfk6A7RGM+OXAzu0l3EoJHICBH2/KAz6UyW8mH99zIYvmmSh18D3PIlmvEUay0wWxABjApSEU5htAJRRAogLec0EN4EdIUMNDR44YzuUd2rW1iVPcoT+8Y6IIMEIoytYn+o9llDIZOBzxacNX33wr0ySoGNoH4m5j5EkeANmiWVO77pqr7KYbr7cX/vl/rByXz4gY+00OVmEWXwl1ctoX+sAAE3fb94ddbZ1ate27ceOljaENQ4cOta5du+ooWgDNsk1kCMygkJFNmzZNTlLwWxxHx/JCe1DDEcENkyyoGgODAJrvsA+Ewj7//POCMQNG0Cj5Oqen298ffVxiMPr4+GN/t169ekjnTsxtNjTYZwJ32KUwrNSCEg8Hz6DYpLLSatTItmuvuVqry9dffGKN82pZKd6RBKWPcoEGCCBw8sw5S6xe1/r0vkQBqyZO+r3MEIIEdRdmi4FwSOpHC171jjvvkMjr/Q8/0CH1UDkSY+hxg37Sbi4mGZOOd0xQJjmwQXTE0s3Eh7BF9OnTZ+izzz4rYBPcEkQkEKbvNNHJABxIxwzyicEC6FTENwwyPixoVZrmN5Gz0+atW4VY/ht/51sQ3TeWHSJyyUv69LK2rVspEu2cufM1m5g9zCqvPsMcijrXrFkrXxkOf8RTDhVTVFy8BViaoqI1CNhg0i6AAJABGt/Wr1/PHrzvXsXafunVYXI7ZQeJkSsTAXM5dL0AjrNKoHiIYMaMHi1rbdpKWTDkWMUzGVevXq0NFi4YICkAXrturaUrkm2ZLOWBE1SXNnBOzLatW2X+xkYLiQGOUQMHXKZQzETKwC8ZmHOVlrmlH7iRgCE6bepmxz3gMg5m6mLTp06yODtmP8+YYytWLJen5fLVa23pytU2a+5CSwg7bdHhJZZcvZ4kEatWr9amh/4wniA5qlna6Ccu8POpf98+sgWYMHGyQrcAVxKCa+DEmII7/lv+ZhWBJ8aOgU0obeZvYqqjm2blIUWuWrVKSxGdA5vhreATfAMoLDR5BOIZFZJXwCLsWd26ksM1a5pvbdu0tv59L7GRo0ZrCSIPgw1VI8mcH57IiOB1XAjStXMnCZIV5T+00uBvOsxpTQAK2dbUn6fLOoYBJDQyftLRTJhAhYTObCqIkwjfxsACBA4h6tW9m/xskFlmZnKqvLO8YRIuWLBAE49Bp83MXCjfZx9/YJ98/KENHnKN/TL7vLMT8PCAR5SCi4ZP3bt1sRGvDbPPvvhSCM7AQQ3mzp1rCxYu0G6440UdLSIqyk4cP2aIWObOm6dTXG+47jqbOXu24ktSHlBjTDyywM4Q04g+FTRtqlPC1m/YZHu2rLHVG7fZmi3nz3L07eE+fu42uy8twRbNnmpDbrhVR3ZMmDRZARSEROza2TQGqTGwhiDA50VFRhgEi8k655e5QkDekYdvPa543PFIyd/0HVzhGXCaNGmS1KUedqw2kRSEBN0n/4HP5O8e6BTmSTDvWN55BlDYpLRt00bHzxJ7G15p0MABYtSzc7KlhaF8KeGDUVjhPxB4w5sgiJ0+Y6YsxRE/hLE0BU8VpTOdu3TRyakj3nxTHZ8xe7Z16dLJOnfsaNdcNUSh9PA3qahwbpHJScky2M0UT1YiClhWWmQtmzeT+ARhe7euneUvwyQBFlBhlnR+Qyl0YNG+fRJlPPdMR3vsH3+TiAejCN6jBcEwFvjQRmAB8BHqP/TXBySeIfATsEJeh7aoWnKSlZWgcYnT8pUfXMLQvR85fFBtuPrqq6xBw/qS4eEEBTKCiCyfUEl4LKjM0qXL7PIBl1lYRLQtmz3ZysuLbdNOp1KlLdRL27g8VZ2xdKsNrp5ha1avlVSCEM30GV8fiAT8onM3doL4I8eOGXEfu3buIko2bfo0i0+ItebNm8ndYM+evUIfN1mcTpoHvm7/m6UZ6km7gK9fuYAbf0cUFBQM5SEyKzAWfsGRa7e8EUgUZGWQ6BAFkaAakHZkfnQSORL8BNFgKQ+1Xk52lnVo194iFSa3VL7DaBG0L5bHkeM78fRLSapmy5avtM1btklDo8bplAMNgwaBcqEsy5YtdTMtKkaysvZtW0vbQvSFY8RJTOEQxljNcJZNJg/tR0WXmY54J8x++OlnQ5tB2xElQWnwDmRJKS0rcd59HFpUAhtSaps2b9ayRszy5StW2soVK5UfbQuIAeD9YACf++65S4clvfPu+4pCBlzhfxGjAMcql9jYWLWXNtE+4kUifGaCRcXEKqw0fkJsEHHUYuCYzPSJdqHp6tOrp61ds8r27Vpvcxevt6MnXTB42uQTbfPp2Okyq1nNrKLknNVs0Fw66qPHT6jvrF4S52kX7jaZTHAmwZAhg23/gQM2bdpM9YVxRDHAaopgHVuB0Hr8b2CMmRjvuWCpSKxc/M2YsrGToYSnhnSUl/A2ICQJ5OPys8vfQUYSmA4/R2LZICY1ogQObiRcGxXFRkXY9PnztWPl+C+3RDtPtOqZGdauTSsLREbqsMOjx04Gd5tuV8zuEHRksBjQEyddGBANSnmFLV68xOAvr7/uGp18NWr0t1rCGQcE1rNm4DYbI/ld+3Zt7bL+fW3Ut9/Z1J+mSVDvHLYoXTs0MeaoB+ln8KkADJKOePtt+/Lzz+y2W2/VBGWJov01cnLk4+KAH2awKXfdeaetXL3GRo0eXQU7YMoJYbBEHqazfpkjsy3nghAmxMZNgwPXmUhjx22S7BVJAIPKhYiGZRR+HjtOztnZumaFRQQi7ERJuOVkE/mBA4xirWG9POvVp6+hksRdl26FBSrsYFGCtatR3X7dvN5at7vQNqxfp0OdIAJIGIAvAQsYy5YtCnQKK0fdvfXu+/bzz9O05Hqi5UB3XhdNG5ksTAbKAS6UCw/Ohpm/wR+IH3nBN2AS6TvoZ5HHZo1/iOCSvwEg7/kGBpRvKJSCSFTsy2G2TJsx26pnpjlrHrOge2Spvi9HThnh4uFAaZjlZ88WiV/zdf/ZHWchFP8w+0yEk4Un7auvR8miGnkkO/nsGtkWyVQOcxIBgBseSbDMgIK3L1uxUu2kHx4ZQXT+RpwSCAppqZ9nvk+/zJknjQ7ekISK9ksaiAHyAhvEV4z43DlzbPrM2ZIIcPoqlJCykP0BM2DFAPGbgSsudsHWqZMVh1DSijvevIVVsozLk9LJdktKS2zfb/vsEKrCw0dt8KDB1qBhM7NAhI29/hYri4i2Jo1b2qSx39i+/Yds9fIVdvsd9xj66/CKM3b40BE7frbMOndqb9vWr5GfUpP8fJ1Mu3XLJm1gPFzoD4Yna9astpkzjxr2oyAUk/OPycOJu4cbMKGv4AjIS5AGQlL7vOAU/ecSMlIoD0nsmgESf2twQgI/UZhHRvJAGcjDM18Gf5MQxSxZutSpo4LqPPTOLDHUBJMMgCvLK6X/5Ng1xCocEuTL8G1ioNUeGHgzUQ/qxDsPJEIH/cmnhF7GcNQsNTrSDle4gyWDpECbp8oK4iMm6MgMdq8A1AMV/s15yrmdKv2jXnhhn0Ccz774Qi658ggM0k7aBm/LM/rHAOIRiRA9Oz1NRg+lrDBBEzjaDDWgn7ATXPTHUWPHAs2dP082ikwgvA4ZPGwX6T+bsexs52iFjJeDkFKrRdqJwrP26cjvLD0jzUpLK+2zzz6y42crrbiswnYdOGI5WVnWKr+Wbd55yMKKTlrg9H7buHO/4lFiiZSZma4ADPCLYk+DyzxtY+eOaI22erh4hOJv33a1M8in8h0XfSVxx12VBC4x6Tzl5HttYATM4MwGQL4SPqIwT4557hHE5/PvyQt2e0Qi1h+7r5joRBk8kC8QoNHhhsKb8Gs+Lw7gzDz8PHLr1K7S3lCep7rqgc6+c0f30g4mAxoNAl1yqHdSeYnViA63Uo4krjArPlek78lLsCYQBlUabAXyQSIhwKIACDYqJPrI8gGS0u+qFMbZ2OlSebLxIQ4OCItlNYhMXkzvoMKUl56aKq+7GilJ2ihUaJcfkOwQXTl9p24S/SDRTpAPtR9qOVxA0XjA6pw8cVLt921CnksZmOONeHuElRSfswFd2tr3P/xixaVlNuLdD1Wm/4/goyQftv+aHvk29puNtmpnoWVnZ8oow7NbwJw+0D8Pi9TkJEUgC4/ktKt9VQTIl8/4cpH8b2BJOSR+I89GdAbvT199ft5RVzjYyR9cJP+x/vhDwb5Q8oAo3AEIhVK4/5Y7fsKEOvHlQlVcPslzVDy2giSeY9eHvV+P7j20q+Y5FIQL4PA93cIMSwdPSqSCZbRzcIKzPFBUJr30wRKczd05dsw8LgTIDCTL9dYtW6S2RBLgB5d2/vG3bzttSeRQzMQEtbWw8LT67xA5XCwL7UNXjLowJTVN2qFjR45C5iyrVm3ndorze1yckBD4ufLdoDMYwAExE0azvAcR0emj7mQVoD6ek4AJ/D27YLRSpWWVtnn3DrthSHeFsCMPefkOHhhWwovV6mYlW6umebblCEqEFNmrohEjMY5QP/pD8hMG3yUsebDQ8byeMgQRjb5weXiH3ukXOEGZEAHYK/DGw9fhS5mFs8v0iZd86DPxnN9cHun8s9A7v+k4uyvXmRgNfli4iznDez/Q3Lkoj2WNxNJWXhnQLmvBwvnSXvhv/Hce0YWgsS6MHciREB8nHo3lFAuWeQdP2OGSMgsj/EdwptI2T2ELT54S4nM0RqOGDQQkEAHgkZ/6mKAeDvSduhFeA8xjx04oL9+w7EANWd753k9IQtoxt4tLiuzQ8eOWVaeOxcYSU7tMFJryqce1z8Gc39STkZku5D565JjKx8AXZ3zK93ADNn6w2cygvsvJrm4rNh206LIiy6vtlkKNmaJiBHfIiq5h1qdjni1Yvc/iYmK1AkDp6Q+JdgiWwaXVrxjUA79OvYjwQnFEHwbbBEzI4+GmcQ6ybpTr2SKPUz4v+SLhEekkjfEYygs/+NxDB4aK/TsPfKxhGjZqZBnp6VYtsZpt3rzBThxnh+2Q2AVjcjPaf+8b4TsFP0J5mKFhQp9To6aMdGH+mZ3kV0eYYREROhQH4wqCOMFsAwRkeyxpIB/5GXSoBzORM2B4Rj/Lyitk8d0uJ1vqPhCUAyXR2XKmNfAgL3BgvZCoM6AgH+KbKJO2qu3BZQhqwXLrYUgZpFOnz1laRqk0XARPhYflO/rCbtXxgS4sC21LTIhTOJWi0tKqvlAOMGAcoFp8z8QQAUDDUVyiCcZmceby7XbdoF424uNxdoqjif+QurVpYOmZOTZ38265hBw4WCh7StodF+cO8qQeLhLPCTUDLLBWhw+uUyfXojdtdIeTmjtNizYBE9okuISsqsAyFMcYFxCTO+XynvELy8vLw0Ffmakc5CSsCJkADvra7777TvwVAKBxXCQAymkCAApzfnbYJSXFOscOS20MbRMTEt0yE8I7qKMIiRU75rzBAXWS8M9o0bKVYrjwN1YrPuyIBxSdPnr4kADgYvi7pcsjiR8o5GZQLl82HdfGSzu8COt6cXeZn9FuD7SqvCBlRYWdKjzJEmFQeiKkKcYMhqOEhSa6mhACaudcSok9A3C5WCLhIzmQJyxolsXEIy/1UKe/nzt7RlY1cQkJ2nAh98SWkL6QjwTsGWzg4NvJZCRgPQa1e3/bb0P6XWSDBvaww/v2WKC02Coqy6wcvXZUtFVapH07ebEVnimTVAKLfvrG2LFrjoqKEa+LZMK10QXmYqyh0PS/fYeLZCuJxATYbli/VqscGjJwhnYxDsiuWZHAD/qAjJV2sxpzYbXE3/CQ/A674YYbAgo/h7A3SB3xNANz6TSCSYwAUJUxK6nEIyXAoTBfGX/j14xulk0JMkLxfCG2jDRUF5SuuFgDxp2NBQDHV4aNjIAPAouXdRHIKBPA+4FEyA7VFbcbwk54YKh9EuK6w7xBCnnLEfc7OkqCWjfI8DNRooD0mfJCZzLRvdhhwk6QyBHBjjmYF36MZgILv2TzPRf99zyWrwvvHCaJXznYXCFZAI6USfsRMZGf35SDkQn1I4T39VKf+hRi4+jbmJqcoKNK8FchchiKh9i4RKuoBJYx0qAkxAeDCfggBmHhtmTpEm2WkHHSHogTQn1RsfIKEaDWHS603Ny6ghPw3Ll1sy1fvkyw8f+xeoB8CMMxHbv55pu1kwY5uTwO0T/gA46FTZ8+PYCu0XecF57yAUgQEGMAGkQB5ENDAGajfcFcCeQTox0RaWnpaWLAyYevMcJc8WthbikCgKRQigU/ghyODickJFrt2jVlysSE8MiPKMjxKvBLLmQxHWVAMdDwgnTuUAmWQ/5pwILLDoPI39wBNAHt4YlOneJUWeR/iJscj0weLZuJiToTm40ClECiIvHImFeBhI7Xc8t5mHhIRgkrICg/5XhxBuo7b6xMO4AzfYEvBE6c2oofDCsTCA9C0gYoLP1kWWep90scSAqc4ZWZDVDh3/b9JnUsSMR3bFqgUPXq13d6+LhY9TslNUXqROCr8Q44iQKBo5AycNIr1vWMCXWQaDOrChorxoN+8g6+mT76SUefoaTACxhTB3iSlpJqgbJKi4yPFnyQhPA9VBMbgkgQi7PxQBgahUATpTgdJhMHME6YMEE7XY+kFEDDZs+erXMHQUYCnkPIqPj1114TYD75+ONg7OnQZYUdOJ3zuzuG0SENQPv73x+RWvGzTz61rdu3V+3sfN0eeFiqPProo9agYQObMnmyQpCAUFAp1jp50gV3+o5qwQIgBcD5qsyuv/56nQk9aeJEOXgx6aDqIDxLL4MLa8Bh6TfecIN1uOBCGUisXrNGiMNAURXl8YNJAP8HEqK243sQ/fLLB0qf+8MPP9i8+fM1QUQZgoHtmYTEozx+/Jg8K7t0vVhnEGJwgRiMCQL1oP+sCiAJCIEBB4PNcwgDgRA4P/CpJ5+WhRB1EHKa74k0e/DAQWNThEEGXn5XDr7SPvnkUxs/fpyQFbhCFDjzhTKBGeUyzh4RaccD999vzVu2sPHjJ9q0ae5we0RCRHRDmE3bwA9EOFguoY8GOZctXmoZjXIsIifeTs8+qDJRXlAvFxNHckZP9XhI5Z4sJyUlajmjYGYayEnBvnE0Fp0j/OLyFcv1jmUEOdSll11qF3Robw8+/DdRIb6hk74O6nGdduWB/EyKrl0vtjHffmOfffG5eEXq9N9SNxfPGAhMpvpccolM+F99dVgVU09+AEcdqie42QBZoDYXd7vYBgwcKJXesOGvCei+X1AoqIlvn1RoZjb4yiHq07Bhryo6GpQVykR+xEsYhvj2+Xo5MOjtt99SP4a9+qrt3rNH/fcTH6rn+hOpjdjuXbuN8605vZWoFWzQqMf3B3h5QkAd9JELb8d7771XenoOK/fjCfJWVEZIW7Nnt6sbSvfiyy/bwMsHWv/+/e3111+3/fv3CXb0h3KB7x/rgqI3a9LYXhk2TO157rmhIlggEX2AqMH70T4unrGZRFzH7/LSMgurG2uJjbPt2I5jlliIAuI8MkJV7d133w0kJCQEMjMzA0Qgq1evnv4ODw8L1MjKCbz68vBA02ZNA1lZWYGaNWsGcnJyAtnZ2fqbyGVEkmr9h4hZHTt2DJSXlwcOHzoYuOXmG8G2/+tFNLRz584FCgsLA43q1/tf80dGRup9SnIyLEagrLQ0cN3VV/2v3/g2pKWlBjZv2qRoWldfNaTqG/oSHx9f9bfP7+9TJk3SN889+6zykJ93qalpgcaNGweioqIUvc3n5z5x/Fh98+wzz7hyw1DBRwZSUlIU8Y08RAoDnklJScrz7jtv65t33nknEBsbqzLj4uICycnJgWrVqim//87D4asvv9A3Q59/wdVjpvZQJt8QVS7MwhQJLTYmRnmeeeoJfTP2+7GBlJRU5afc1JSUQHZ2lr4h0hrf8pzrk48/1Ddvvvnf0duIUkcU5Pz8/ECjRo0CDRs21MXvBg0aqB1NmzQKdLjwokDN3NwAG2cilxUUFAh/rrvuukA4WEyCH2QWOorCDImwmHZvm9VqbpXF7tgHqBqJWcPs4W/ufBuaCLnMssTzbt262x233WoXd+ms/KH5/G+WuldffVVqtkf+9rBt27HTv/qvO21kWSMhH3v5pZe0W3/woQctr1aOQUeT3Ga/ir8LLeT++/8q77wxo7+17ypKrCAAACAASURBVMeO0ysoFYl+sbHxffIUgndDXxiqqLEPPPiAdbu4i3g5njOjEUo7r7rzgv+Bl11mAwcNtp3bttrXX3yqMqMi3TnOsATw4/57KKSH7fNDh9ru3TtF6bpdfLGWL9gB2A7pzYMrk6hNebm1b9vGrrzqKjt29Jh99PFH6gP98OVxZxyw9oavT4mNtuyEWHtl2Gs2c8Z0G3zlYJ36BVUkwf9hI0ACFxy/ataieTMbNOgKO37suH399ddVkYmVMchPeoro4Ufdvh2I16olpeLnYpnsMSIixBJiXAsF5dtwn9mTfArnmHGzWCtr1NfKs6OsFJ+HIPMf2lF+Q9Z98mXRMaKKXXbZAPv7o4/ZqtVrbNAVV9i1gwf6rFV3vnnu2efEe86cPl3h9KjLJxotHiuI8OR3vscux8iRI237tu12YcfOdv91V1j9RJTu7sAiWd/I18NNlg7t28lxnePQhg8bXrUU0w8QggsxEnW6SXm+bxhz/OfL/1hGRqY9/NDDlprifEzi4mKEpMxTNE5Mloy0tKpzpIe9+G/b89sBi4txBhL0hcvDijrhs1haaQd+y//+97/1+6mnn5azFRuGcpz4Axx3BwFwwVax//zHP/4hUdNHH31UtdwCP2wSPdLTJvpULSbKYsMrZUXFGP3rX//UxvH554cqYjAThJg61EUd6KPRuHBMyR233WbpGZk2Y+ZMW71qtaQlXmvDSISOmWdT6CN9IlFfVk621QieVstzEBGRDgjPNzp6wyOiBxA6ZChzw0CRZRGJnx1T0JbufB63KaEQGoKcit/wJFCLefPmqwENGja0vfsO2GuvvWGv/HuoXTngUiu1cKsIc66RnAfY/7IBYpzZLCGQ9slTD99R6qYO2ks0BlSDUMc333zD3nn3Xbvv6X9Zq4s62ckKVGBOTgZe03E2I2wO2KQMHz7McPwnUTZl+ou81OPr9G3hPmzYMLvm2mvt8isGy6iYTQdUUQYSkpG6OOCYzyEnZWe6bNEia5Bbx2JS02TChWCdfgEnEhThj3Xi5Xfl4CHWt18/mzFjuv22d68oEXpr7fZFAAJyuurUuYs0V2O+GxMcA3jlCEuqliQdN5IGytcGISbOzpSW2JmiIgX+x/Ru+Kuv2JPPPGszZ82wbVu2SMQkUZW2Wk47BtK3v+AiSS2wek9ITHCShRDg+LEJeaR6qRtYstve8euv6i9qWDY3ICOThBAxyLqrjmujEF6QHDIWW7fMJVY3PMriqqVavHZ2532fIa0SQQS1AXinMeAAmYFFJZaaXd1io8KtOCrSfvttr42bPMX69e1vpaUcwON0k8R1eeuN1zVQfqmgY3SC9vBMg4UePNhGnboV9KugrpkzZ9q334zUEnvmbKn8XyKjXJB5RCQyGK2stAXz5xmyNR8S2i3Prh5mOfWypElEAfsSFPBTPwlXhwljv9cOng0dclTTRsyxOQ6BK+zU6UJbunihLVm8yM5ExFhUcrxCKSPCYaMDAjKh6J9DfEFdf9MmYPjdmFGWEB+r/tMHEJE2yiIouHKUlZbY8qWL5APOBhC9OOHqaAcGsZRPf4ARdw5GYoTjAqal8cy5c0L2Ll07y0jWU2cnRHcbQFdWjC2cP0f2qLt371L7aDeJsvlNXfSJ38DLX+ThOW1DfEOUEfTTPMM/HSREREg9ooz8oFAPdMksrNISUk5YRSBDSxfvyOcLB2j+b+74saSnO3Ucf5/lDJbocCPw/MGjJ7RkzPlljv3yyxwNYkSYU+IThaF1ixYa4GZNm9quPXssJiZOkn5EMCTqhqKdDqou0QJg9s+E4N6mTUvbvGmTzZu/wHbsdMfEMXjs7CVMxrgiNs4aNWhgrVu2kMyrTevWoqosZSCH59v8AJYFAYahQXpqmk6sykhPlWgFJ62fp83Q8oz8kcE7eOig1KHsEKOjI23woEGWnVXdsjLS3Rl+585VURNELgjwnQO/uij4a/dbUaHTI/Kb5MsYdcoPUyXGYUxkE6mVAfVaucKg3HbLzVardm276KILZXKG8uDwkSNOORCkuowVIjsQAIkClBmkxrDj4u7dFGJm/cYtkoqAkIjNuGNjSn8gGBd2aG+9+/S2QZcPtFmzZwv2jAtSjSNHjv4OCRl/j6zkAaZMFlZPJjrvaQuJtnmErjohy2fgYy5SIDJOkntUUixH5PEXBfgZjoDTfROw/n37SmCLjnre/HkK4qRKIyOsena2BiwtNU2zI79ZUwmbCZa+ddMmq1evgT399DPiu0AOEvyLGPCIKJlQcZLoDz9MVXBOWYBUq2bNmzWznbt22fKVq93mBjEfWpKICLt2yNXSdXuD3FWrVooPuvuuO3VcCKZA9KUMEUUYLhGcwwJVCOhQdD8gCP4rOMQHFWBiNbv19tstJjLCPvz4E/mhlJSWWA5nL8fG2f4D+xWM4Lprr1bcyClTp0oTsW3rNvvwww8kj6NOYCk4VpTpnEP08NOmzbBVK5ZZzZo1LCo61v7+j7/LPOys5HcVOhsHBGEzgChlzi+/CNGuuXqIgot+9hnRMF7Vcs5Eow5PufgNRWe1gXh06nihxG8nC08JuYAjoiyCPyEjddQsX0oPHKjy6udZ30v6yNUBTRnWU/sPHLLJk6eoLcKZII7QLxLIBm4whiSeMy4ex/ydtikHP0AsGu8xFnz86qM3LXDt5S7QUJDJ5GM65yvjW77hObMOwSmCVjz0WrVoblu2/WoEdBK/U1Epyw/0wCALwnVmLMLq2rm5OomKqBRr128w9LNVGxXH+Klj7FoJowJAWbZatizQDnDWrDlyuUSjAdONeq/CKqRd2bFrpwxS8cvBLCs6MtzqN6gv2d6vUFKQosIBSTIM+Wo7X2VUdceOHzeYhJYFBTr0Z/3GjeozMXWY8SBHZHGE4MckQkc8d/5Ca9KoUdCBP9+2bNumNv/880/y1wHZ0WKgwQH2yGxZCdD/dru4q4Egy1fMUj9EyTSUziiZpS0u/rDaQDlLli63vpf0Vn8wtvW8tr9LOxYcM1gAVi0Cul555RWKNjd71mzxlOSnLejjMeAl2AJBPTFE3n/goI0fP8H+9vDDVjc317CWR8NFAC8mIjgBHEMTzzyyuQngjlP2rBdjD2KimVKIFT72H/DbYbCjjGtXzLdtbfJFWukElYVWyHdCwqAtIJuJlStXWc/uXbXSL1i0RIOHDwoifXgs10CzHTt2KcQGWhcQGx6yIL+JETK4VasW9vqbb2tfjxjHd4pZvW/fPlEgIjbAaLMUrlq11rbv2KG2gBxcvl9jx42zqT/9pE7DxAOIfn37SLeKpuT99943Ip3RD98OljB+A1uQGwrx+D/+JgZ++Jsj7NxZZw0D/we1b9+hvf34ww+2acNGUW8MKaAwxL9p2izfWrdqYXPmzLVdu3faiBFvSePBBGYp9MsUO2rsGB9+8AFZGY384CNphiQ6km4fqYLj2RlANEX4uGA+xg64TetWUgMCF3gwJjrwEvsRFqYgqizzwIYx/MtNN+h8mm++HW2jRo0WfBh7dt7Am9+MOfBideAwJJbv3j3Xi/f7ZfYcxR/nPcsvLAcw41sun6iL9jJJCPFHuShKUOWSj30HZWADIcrIQz7wyOYRjucAjdniEZa/fT6e+ffkRUcKVaSsrdu2yZOMvGfOOGd0yvldOnr0d39iwJoLkhFBKyZah3//LkPwD3hGxA6X9O4prz58jcF+tTe4PLjp5FRaUB1mIbway8+ChYutdcuWYvJBADz/SPn5+QI0Dv1JBGePjrTt239VxNoz54ps5sxZVqc2tomx2g1y2A8BQgmNzM6QMCXdu/cQpScgPYNEaGiMDrr16G5t2rW1o0eOKDBTixbNbcqUKdpJ+j62aN5cQUJZGdasXaeBY1XhHBkmJcjBQAJHkJhyoayo43744Ue75+47hfjswHmP5oyBZoywRYTHBkY4yvXv39e2bf9VbAHPISTkh/UBUUAe/iZ53EAGOXb8BPv3C8+LdyQY/p8lxtzji8cVkByKzqQDIZE7MtFoD0hMG4WMvOSikzwkA4VREPwgzzzWe8TkHYm88JMMUGZGmjzJMKHCp8I3CkpDGZRJfn6TfB1sLkCSLdu267DKuNhY+8tNN2qGA3xUbpTFMguQGZzS0hKxD/PnL1DoZcpFwJjFqfdl5XYYPXSwLurH6iYmmZBwxdpN4yB/w3XX2lNPPmEffPSJHTp80O666x7pUuHFCMfx6aefyt7xwgsvtEmTJluDho2sZ69cURfeYY3Srm1b27B+vRCPzYwLml6kUHkPPviAdoxEX0B3e/mgQQruydJKPkKkELsSERE63N49uwt5xk2YKPgAU5ZAlksSzlx+KWVwuYALUYDnLVhobdu2tvbt2uhUM3xwsGjC97yM6LilzoIIXr5d21YKgvXBh58pJhBILZ1+cGWEXYBFonyQGTYKeFMXZ4FPmjLFevfqbZf07mXbduyQupGJQtv8GGs81GonvgLhEe9QJtQa0Y7XrYN74ETVblp/BI8oA/EolDsZPdLQGF8Jv5kxNIKgRWwZACybE/hBeEcS+QIBh3weEVmaWTI9pcRsnjpYttgoZFXPFAUhXg/LJGJ42gFgsMgBOUFM4hdu2rxFdUAZs+KirU5ZsR2pCLPDlaHiBRfoCctm3xeoY9tWraxduzb213vvkqwO3m/OnDn28ccf24cffmh33XWXYRG+ZvVqRWxALMFxEZ999pkYdpY8eDuOmQPAUBSWG/oGbIi7wzP6yzLGZoMBgFIDb6xjHvzrfQp3B5928vhxmzjZLff4fgMPLIOAAUQBczHYGZKnJgxuXFiYjgNhY/fkE4/bww/eL37Os0Xkd1Y2zlqJCUlw1fkL5ldRJ+BC4h3jiSkaY8dzJBL8JlHv+AmTrHOnzrLRPFtUpACi9B9K55PPz9+MHeI0xg/rHU5cY6Jh/+ipN7gQSQaAxzKGIz6UxzfCF8zdPwOhaBAJgKMIJ1YMvAvaA5YTRDzEwCFcnc/ry+Au180gsvI3lMIndmhsABYvWWqHjhyWaTz+K1A5DEGxOk5OSbIG9fMsLTXFevboYSO/GSXEPlcZZqeIzxhZajHl4VapGe74FzZX9NPXBXUl0OfOXbttw4aNdvDwIeves49EQMACIMHPiLGOjNSJAngvYnsJJWeWu0hdYRIugxQgJ8GzuEMJ6TtLKIa1hJFhCaQ8+Dl43+qZmdqJE/KYIKNoiAqaNZMZHmZtQoTgqau0G+qEYa5PfjLTLwIANGnSWErkJUtX2G97dwkJlDdo5obrLt936thJLr0slfCVIItP8IdMFMYZ3PCrWihyETOHcUKztnr1GrFnOvbIS2FClmnKpR9QTcokOBbsC20H15hkwBp4RjzwwANDWZIuueQS69Onj5YOnK0BKImlCMDRYQrlolAKAtjMXqgjhSPtx1sN+RWUYMvWrVXl+M5yDw/DZAjRjUNCvxzAc/Xs0U0AmjjlRx38uHvvXh04vv3XHZLX7d23384VF2lAC/LzxTcRXoNJgbPVyUCEFYZHWiyUNGjhTTtpM0sFsb1pK6GNkWtOmDzFvh83wSj/0v797cabbtL5hfBMw4cPF0LCS+bk1LDxmNId2G/33nufDbnqKtkeEnGDY5CBB5sHDmRkAwHigdTwjrfffocimLEUwzfxnChlnPDw4Ucf2y9z5tiiRUssJzvbevXqLqsgjJlpJ+2GKDlq6jRFwBBCQJ2My5GjR61GTrbdftst6se2zUusoGUNyww/Zhl2yNLDj1h6+HFLSwpYUny4rdm409q0ba+N2fwFC4QcHJnMagbSuToROzE+bow8MiIXfuiB+8V/f/r5F+ItaQ+rCtRO4xtk8yjHr56Yl7ERJDoJKwUwIgYmeMepvuyoNSWwjQPhyMQywswA6UKpoUdEKmNw/Xv+5jeVgv2bNm/VafJ5uXWNU0LnLVigJYOdH3nIC0VJrUwWP0SH4YWoE4E0/CKnajk/F+J3R0sVhlmXqELwQKI1a9ZZyxYt7MILOlif3j0VzYLBY7YDFDZSUGpmIYNGvSABFLZ2rRrafXKqF0jIZoKlnyX5hymTDUo1ZvQYO3L4sCgdMjnih+/eucMO7N8nw1/6SpiOVStXWlp6uqKQUQeTk76AmMCPkxV+mTVDk5IDQzdsWK+BY5mbPWuW1axVU3wyMcvnL1hkaEP69u5l69et18kObKSAt3ACYoDRLSZawXEgFDK7aYJfxScm2aa1E6z45H57/PGfFb9I2CF8kl7UChrWsvbNG9iixYutY8cLFYto3fp1osacogACQeDgGf2qCfWiX/w9eNBAnUg78ptvRdGgqmpPUNLivndEKxRX6APlkJ88wN7x186AGj49Eh7tjTfeUJv9f1AqEMdTFJ4DaK7QxN/k83mZHVS0a89eS09LV9wdrEViotzZw8gH4V3Qr+JaSiDQM2fPaWYjh8zLrS1pPn4cDApqPxALHTS6aCyhjx49rqj7UOMfp/6k2Dmc00covdlz3cmuAA2E4DyWG2+8SQh66tRJ6b+xvSxoli++aN2GDda1S2e5h4I4+NRs37pZFKJhg3radeK7PG/uPImd/nrfPfb1qNG2c8d28bEI0seNHycqD+X6Y7ri8gF2xeBBNnLkKBkfw+8p2Hxmpp0+c8ratW9nKbJmcdoRwhOjoeL4kscefcSOHDuuCc4AOjkomz/Oli6SvBRRy66dO+VsRmTd2bPnWvjZ3bZo7R5NXMaCfjlcdBRu5cbdVrd6hEUkpNjp/Gb2xOOP2sFDhySz9YjEB7gRUxeObGwip/w4VXx81y5dFaOyoCDfMjNTbdXqdYoy4QmXh0FVWUF1IDgCsQOnuM+YMeN3EdtggSL99trvhBh8lmiw/Y+JCknqYHAm8D0VMBgw2BmZGVZ4olCUAVFFi4LmcsrHeCA5OUUzA6pFSToOAwFsXLxC1VHOilWrJfogpjWCV7z/yIsxAvI9vAahmiSMeAEGR29w2NDqtevs8KFDchYCGbkwHFU9RO06dly66cz0DE0AF+uxRJoWmH3EJFitezERSI2fDXww4fPatm1jg6+43CZOmqzoC4AD4TqB5hFZePjQtpycbB3Zu2vXHoUZRlcMTPE0rF+vnpVXOENWWBaoPnHLCwqaa7MCywGFPyK32EqLiHQHc8ptJoylL9I4OYIos4TRu/6aq+3s2WI7dXSTHSwssj37jgk+/j8fzY320sb5aw5a37itNn/+L3bppZdpNeQ4kaiISNlrwV8jxiktKdbJB9RBhLQbrr9OrA5B89kNs+tm9QHOnlhx9/jhiReICP9NbCBinbNCAGdWKhKsBiuYwiiDiCAhhYC1kFMPWAryhfLM//aYLz4siLhI9rdt267C2Y0xkACYNWbixIl2/MTJKn7EAwoEbtyogTVu1Mg2bdmioyAIQcIyAR329VE3Szbh7Zi1LL0gC4Bp1ixfpxcQ9Xb6zFlBXboJyD/+OFUhTaCkIP21Vw/RUW0ffPypmkA5IATtpT76qxS0IUTLw06RCdqgfn0bPOhyRVYb8c7bGqiExETLiHWm9b5P3G+75S9avt//6FPplpm09IH2sTmD6gAXViFEMH5ZRNvRoF6ePf/c05aUmGCff/mVoQoUlUN1WX4+kCeTh5CAhB78eeqPVnJwl/28YIujhMFl3LeJlcenwyfO2dbDhdY6a5/t2/ubdsELFy4SBYQKe98hJBbnzuKeGm8Xd+kiMda8BYts9Jjv1G6E/sQ68sjoy6ef/oLAMIbADz4YXplnwB2cA7bUSdLZgXzoB50BDv2bjAyQHyT/zv/N3SMmA+43PmxecuvUsgalJdaje0+rw/EUhad0Rgw7NPddmOJ+F544IcrKQemUz4z/nxL8Jt/SXtrGbnXp0uUKPdKlc0cjZN0pYlJHhEv0g/gA7z42TFAvDt6ZOHmKwpOwbAJIEjOVvpOHRB3I99A8+DT5x6nW4YIO1rp1S/vXCy9ow4YrLpQKNsD52ETIYYmd7eLFS23h4qWWkFhNIVjoG5QEeSSwoj4Smx0IgIcdfigrlq9UmOMnH39Mhgz0F3zCthG0Qhi/d88eq1O7ru0/cNjOndhtEck1rENLdONs5qK1wULAfWHHrrZ8BTvsXy0luZpVBCIsNqmGRRSdti3rV1vffgPs1ltuEeyx08RqC0SnvawSrETAhcPoOVaZ83uAjW8vfaB95OdSW4OiIf4G+Zh0SBHwPGVMgC8rBfD3+FN1XBsfkPzyrIYEhdq887tpXzgMJwBlOfHfhjYKfSgh4bDoQDvATMCKWo0lznQ4s8Ex43gR8htdLyHvfPKN9HW65cydLkqH6RCdWb5ylWVWzxAy8E0EbqdBA1N4TWcM4YTmvOdUBWR3fE9iZaDf1EM7KZsEspLf94/4j+yoa9esJWpC7B6+ATv4Du5MVJYNzN690rHHW7klRMdbaXSMRQfjZSN7RKTCRGJg9G1QwUB5IOmXX31l+w7ss+goJ/AOcn5VcsdTpwqtVu06WklatWhlHVo1t4NnE2zA5TVt5qw5dlHHTjZ39s9WWBRuUREB69q1p9Wue5vF2RlbtW67VUutZQ2qx9iuvdts8o8zLSIqzLJycmzTxg0WHhYRhFnQzhM32fIKTaRff92uDSiyR4+A3LmAk4ed4MKoBvsDHEFov+qSl3dcfMM4yiGLP3joAc9vn6A+HoN9RbwDYH5m+299obxHor9vH/K0Pw/n68vnztCnpadau7btFJsR6kFZIItvi0ccZiPGnbSLDkiwG2Y25YefLKqyDANNi42IsCOBCKssw4TsfF+oC16LXTi7VK+Tpi687nxWZjETTW0L2bTBO86a9YuQrqjIRdaCN6xdq7YtXfZ7v2G+bdIoz3Jq17LyY0dlOMKUQx4InP1FPVwsVz7xDlO4997/0EpKzssV/XvutJEJhRURarl61eOsZlK8vf/ZDstMS7Ilq9bazp1brKgU2WKJVc+uaclJqZYUH2Vnisssu3qcnc2tYXPX7JQG7QDBPBMS3WFMmtCRv2sTtpVQQzapRBsOhSvwY5z85f/27fWIh1gLEQ/ybJ+XPIwjecIBAi/4g4uCSDwj8TcXAAIhuEJ/+4J47vNyRxQA480A8jcqQ8kMVOrv/4MyYR3DoLRq2fJ3LymftqjeoFumH0gmAxHIOOsZIXZMdJzOz8tKrqalOTbe78ZdACnKgFFGhFNQ0KyKUsOwI2Ki/yR/57eHAzwd0cPSUlO1GkDNSAR5IpY5ZdMP2kZCHkekspj4RDsZGWvOOdct/+QBJnxDglp4ysxzDiFisng1IPlBvtDEuNGmyKhoI8LYtAVrzMoOWUr0WVu3fr2tXrdeUSNARNLhg/ts29b1tmL1Ktuyeb3VTzlrC9evsR2790rGB6XmVDD6hcTD95s2woYQNa5aYqLFx8YJEVkpfR7u/qIfjAvjxuUJGe8hILgZ0F+ffBnqD0gDAEi8YCC4+2cAgr8p2OfRj+B/f3zvEZrnmHLJnxgTNfgjT3pCCyA4pmIVVuoQRvhFYg9Spx8gyqIjfjbSWRoPoAj+xFIMs326rMwOF5Xa2sIinQGDlQrtUdSFIHCIS8NOEYAwU0kYeFAfifyU/ccEghAhjLzHjzl/ZfLgVI9Mke9IbvAixKMWl5Tp0HWkCGfOuRDNDDowp47QgfL1YQDCBo4NjmNf/uc28Q3hn5lMMYhLVu63Pq1qK/KYL+/P7u0bZVhUeILt2HXWkpLidc6h7zNtoi9+vPkN/wjPTXtAVMYiNHn88P3hW55xue8dMaEOYMUu2j8nD7jGOwV+8ogXmsFXxjN/8aFP/jcNgCJAfjEVg8LIAuTECafCK3czE4Tyifr43pfBcxAyIjzWdu74VVqgbYk7VC9l03nyeraAAcd9ANEPAl/SqVNn5ESUyMkF4USprZRlNOfnsbRAddGqMKPZ3ODnSxxpEAUpgPJzsimaiCCiUw+pvKLcYqOiNLlgIdDskOgHIosDBxwr4vlq5nZpaYVYlSPHjlrt2nVkvU0bfD9cvxx/ikTCUxHOjkZqcPwE1trnVypVGCQYoeNFHtqPQezeE6ftYOFZ69G6rs1YvsN/8l/3Xhc0sR+X7bdqyfE63pcyaJcfIz8uOGX5IecdeuiM6pnWpHoTwY82szfABpMyPAJTIWX4K7QBjGUosvKOsnkWicYF4PsOUoAfdDICQN77ynw+XyF3p+VwLqQgJ9H/2Wwwm/iOb2hE6LdU7v/2ZWOmxYVSHRnljl27qpCEcrnYidNGbAYDlRy4XqpdHpsN7P0EvKD6j/gymOfDOFMfCMC3LtZgmXajrdq01a4bhpx+oxZT/4kWER4pakhApsKTJ4wzmREBIf5i6XKD5QbR90W7GQMZfei/SsGjaX4zuYvSHiyUqANxC+XBNCNOKTqHETIyPhemmqUa1oayVT6TGHgyEao2VnyJrK7UUpMSbP76Y3bjoAusdkFrM0kCICDE14kwApY2yUm09es225FTpRYfH6OdvE6UIEBukH0ATsAZmKqe4JEpTDbyZGdlSUiOoQoTD8E47WPyekTjzsXYgkP01ysGuKP+A/d4z6W6n3rqqQA/oB4UyEcE4aEA/m7fvr30iXPnztXuD+TzFIO8DAz8DMuLQglXVNjxY3jNRVpsTFxQlecQSBWi0IJ8E0I5uLRJBkaMp6CuG9FHVnaWynZID5PrbCp1wmdlQNRNooUws5joWNUNAJkEJNgD3Ac0VMjnxGacr9sHmiLEG0d0MKKwAQiI+UfTqJM24pLAYKLSFFJoeMNUJ++pUUMuZHHfS1YXcCowNhpopBII18dkCkoCfR76rRXlJGEEzZKSk2WMwfLIYAtu/AjAuzt1qlsq3d9Yv6NFOXHsmJ0+e84a1a9l3XpcYJVniwQnEEoIhylYSbktXrrBIqOJuVNHhATek4mMzHTDhk3SjiBuio/j9ALHAwqmVmlEJO5wYRerVw8nKuJqkTkr+QAAIABJREFUVtrW7Vtt4ZxZGlcQGeKEHh5JgYTZkZE6TgXbB3AGJAW/POIigx1NIP7Zs2cHOIhHQA1uVKBAJK+NQT7EcoR1BVQGZCJ5pES8k5WdI3mUELrczXoGj4rQBwNV6mCAaQQkzDeG0igzLBBmUfj2cgQI52DDm2ik3UHkHGZJ27yLQCmnRgVnvVwd+I02g1lNeSwBEW4JoMngKW0A+AjOARS+HAys+iwK5doiYTdn96ndbrVgwBhY2s7ggkC0m8nkRR2eP6U+ymSJT4iP13Lmgog68zry0RaWfIx+KQfKgysrz9l4MGDAjahr5CePYGbu+BKoKojMM3hRvBfBcyyLcLZXLiZImAkpUcviGsyBmdgA0C7Fuwl6foJI7OKnT58uw+Pq2bUE65ISR9nQi8MSsLEiUhySAWBA+wgbSDs8TnBnMwQ+YBQxcOBAmRhWwr7EuI0wcKev4A9ObopCRtAgAEcBXBqYoCAY7JYzUojKB6BQEXnZBDCjFGELqWwgYPffd7eWqfETJhpnmIAoDJ4oAY5cuIWGuR0lIb6JCcigwzf279fPOl50gaE5WbBwYXAX6ULiQQFILB9sdO69525r3LihffzJp4pLGMlmS1H0QBAXYhkqJIRlExSOR2KENiHop6++6kpbunSFbAhBFIgPfULFh0wUhD5x/LgNHDDA2rVra5wVvW7deg2Um4ww8o5CyjiVTVdwowdVRkLQoH49u+2222z7r9tt5MhvNAncSuAouJswSCLMBg0cqECcI7/+Wse6wQrQV6gJVMgjOMhB//04QSC6dulkt/zlZvvqm29s6tSftamDIoMgjFXNmrVk9nXyxEm79da/WPfuPe2DDz/UkW7n4Ypa17lgsME7V4RLMZTf+QMhcOc02zq5dSRz3Llzt/rDCoVuGbM5xDZcHAjKcsyEFzUsr7CG+Y2solrAinecsfIIF9Oc8oE5kymS2ceHHqvBZHhEElQNJh+LHr9U+GWKQqgEPSpLvLP2QXVWZtk5/5QN35FDB+2Ff78oCst3zAQQmW8BLrPKlwslqlGzpvXp01vLM95omzZvUmegZHwf+u2xY8dl5ND/0kt1gM+dd91tUGLK8/m0PFWJahw1R7uAMe/9995ttevk2dCh/7Kff/qxiiWgHgaPNnKxKiDLu3zQ5dajRw8Z1vKcRD3U5+sEhiCw+hekWPfcdYfVyc21t956WxSHicmEgIJp6ZR+2zklHTt8yL4bO85uuPEGGzdurKOMqsnV5dsE3KGisCzUxx1D4F69+9hHn3yuiL8MsNoRDJiPjp6+gTgcC/LUU0/LqPfirl2DFvTOatwhvuNlPfWmHKcuDdg3o762Cy/qbFcNudo2b9lqMWFOKI9pGASJdpEfagciUidwKTxy0kqbhVlCuzQ790WRxZyKVKhtYEhbhXOTJk0KEMSI4E8ECeIiiBGwrlk9NdC3V89ASmpqIC0tTVdqamqAi0BEfJeRkaHnQbZJ31122UAFCFq/bm2gXdvWehb6/n/6PXasC5T0j7///X/9JjExQe+p+8SJE4GzZ84ELuzQ7n/9JrTOxx57VO0bM2ZM1TcEYArNE/qbAEsrV67UNzdcd63yeRhlVq+u4EWh+f3vKy4fGCgrLw/MmTs3EBcXW1V+fHxcVQAn8lJ+dHS04D5h/DjVc8ftt1flp66EhPgAgZh82dzDw8P196X9++qbRYsWB2Jj41QeeZOSkjVWBI4ib1R0dCA8GDTrjdeH65uhzz+vQFQ+wBN1kT8UHj7AVP++ffTNuvUbAvHxbgx8e8CJunXrBnJzcwO1atXSRTAoLoKGxUXHBvJa1Qs0HNImUKNh7UBebp4CZhEUqmnTpsqHAUMVMhKFCySLiopUYxLaDAq0vOr6QGp8XCA9I0OIR6SyUIQMjaDlG0YZy5evUMM//fijQOOGDRXdyr//s/sVV1yh/PPmzlX0rT/LwzPKptP+/QsvvKDvpkyaqOhZiUTSCgtT+wGoHzCfn+hYv+3dGzh+7FigSePGKieaKF3Bb8jnf4cOyBWDBqmeLZs2BfLq5lbVT5St7j16CAFiYmJ1p4z09LTAurVrAoGKysB1gwZW1QPSAUMG3NfFYEdGOkRr3ap1oLi4OHDkyJFA3VxXD3nj4uMEl/9CyLCwwKL589S2G653Ed/iExIUUY16iC4HzGJiYwMJ8fGB6olxgZSYyEBundqBvXt2B86cORPo3r17IDyI6PSZOiIjIgQH30Y45R+muEhst952RyAyykWC8zDyyBiKkCAiUesgGrSjeX5BoHGDxoGWBS0C9evXV/Qxos8RuYy84ZBRlhmftBQEYJbDrWu7f1j75hdIYAsTBknl4hvHWzmjhdDvKYeNDg5LX335pU2aNNG6de9mN994vbVuiQXPfyd0tcQvZIl45ZWXf7c8/TE3dWl5C7748ssvZW3Sq88l1q9nD0ukKyEyLvoTmp577hl59BE3cfOWLXrle0+/fAr9zbNJkyfbL7NnWaMmTezOO+/w2SQ8R5QF/wYv5/k4XEELmrewOdOn24LpP1tKovOEA26e36YQ6uGCH+S+avUqe23Yq7KKfuLJJ1QP/BsqOL8DrarczLCZvLBTZ/Vl8pTg2dFBv29he3AZRPYaExluGdHhlh4Xbbv37LWnH/2b2JPnn3s+KG1w7ADLKrwvY03i3rlzJ+vdp69t377D5s+bq4hort0uj88n/AmBeWiepi2aWbsL2llUrDt7B7YNLwM2TtRZFWvHIxmFsmsipVSEWRo8iRHt1cWeoTIQInSQPXApwz//4P337P333xOzDyA6dezoohEkJlhReISdQ0wR5szp//rAA1a/QQN7/bXhNuWHH1W32hHkE6seBPk/YCSkDMP/eod99dVIRby9+c67LKK8xMpPn7H9RFR3NgzaHMFMo2q88cabpQ4cPvy1qmLpLUCj7dwpG+CEJv4e+sI/bWbXi+VGwFky+/YfUNhndvC5tWtp54+8D9O5J558WpPrrTdfs8Ml5ZaSnm6VRU5cBvC1Uw4OtEfg4Njbe+9/YFddc63dfNPNtnL5CtuydYvjt4OGGPSL9qBkeObZ59TMDz/4QJsAyo6Lj9euHMUAvDn8WFREmUXFxtgZNlaV7vjicZOn2vU//WSX9O1rzzz9lGIWscNmsvu2oDljXJ986klNorHffyf/Z/hxdvKhiXyhl38HTGkvhiHAGKLDeOCygTYG/yBgHsl/JD8I7m+eVViMLbP4sLOKzEqsG94xs0ne7tEzvAABpIQqkhhgLLvz6uba8ROF6iiHXb84b1jQKAGUD1hFWbklp6ZIMPztqG/1rf+PNtE55If8lmBbIdoSlYWNDWqzL7/8wu677167uOvF1rZtex0IFCUq5+SmDAgqQABNevutt+TR5+uB6faJ+v6IiP4dnoMzZ8xQtNw3R7wjr0fCoURGR1okVkhB0REzHnh9N+Y7m7dqjeVwDkxMrJUeOiyTNOrz+lnq+2PiQNARb75hw4YNt1defUWOaNBsEIAJ7IRWiGuIrpEk3+tx48aLwlA2YivELu54PLdx1LiFR9rZQJgVYbEUGSkFA666+Pg8/PDf7NZbb9MYqwbJQ53sF9gjVdmyebO99dZbau4fEZE8JI+Mvk/+bzYzWHqx0cVDECJC6O3kZOcmwoSUCZkHCAW6QkG4SosKX22R4Q3UOXbWvAMhyc8OGixnhvMcwXdqWpowHnkcFAKd8eEjRyWGAHDjxo5VTGmOxeUbxB8k1HoEpq9eHVfXFIl43Pl13jzLaW9wUQAIJcFwGtTPwGNx8+9/viAAswN0g+YGAScgxDTITJkoyPEO7t8vRy6MGWgjO9KyUneWHztdAToseFhSmTu0m8lGXOwxo0fZ9m1b1H8QDPHHkaPHRH2RzyD8R7YZGx1lu3bvtRrZ2dLWUD8RLAh5zCQFaVhtmEycfkBgeURetGXxosW2dctmmzJ5oo7fVaDQYOBOxtyjL6Ij/KNRv9bLqyunLCywjx4/Jj9xYKyJETz+Algz6JAa3h3WaRPF9tOPky2vfgO9Ky1B7+/ciD2hwUhCMSLLyqxu3VyrVbumLL5pyImTx2VQ7YkUdYAflB+aKAsYQMTAId4fPXpElkfgFpNTGm8oAS89FvtyIiPjJSCmA+eXErcU00m/1NAQSDDUp0WLAll3ENNm69bt8l8RpQkLsw0b19uuXTul8SAqBA5AuAAg29qyZZMcfTp06GB16+ZZQqITC0hGiEVQgODq53RELraCjoI7U6qaNXI0eGvWrdfSCRDoHHlwVGrZsqX4xH37D9rePTutfv16VrtOLWvT/gIhkdwSis4JURlqBNiQubNnz4hXS0ggEkOYDDmYaFj91KhV21KSw236zJn200/TNOtdpItYIdWlfftY94u76YzqSZOniGrhfUcYElwQGBzq8INWWHhSiFNWDmKetR49uulYOf7GOBjPS54DS5CWtHv3HvF6RAa77547LTY+0b77fqx99dVXTsQShBmiH9UTlIP68WRSDLr8cqlDp0+fIdddBPCnTxVKiK3VJIGzH8/azp07dMrrTTdcrzAtUFYUBujqcUk4ddq1zffH45K/8xx8YRJ6fPNjyDPe/878gge+MDq7Ys0GKzxXquWN5x7jfSFQJp7Bk1ABy3SH9hfIZhBkaNOqtYxRoVZ5dZ0PDCZEWKWkpaUrQHxaeoZt37bNxn43RtSVQ7+btyTiQbIQSpQXY9wIFOzl9tu+fYog4duK73HtmjVl3bx772+iarxjstA2qC8RE4gf2bx5gSj+vn2/6bjbWjWyFZcQviilIqVKYI0AG+qD1Q+UFC0Jh5Jj0MAsRoWIVmnlqhWyMsfvBx6IqLZQWuIwrlu/yZrmN7X6eXlWN6+uDDlKjx+XXjw6JtaIVkafBO8w50vOij1h/Hg5f2VXz7bdv+1VZDTC7QFjqDNUNykhSX7GqORwK8aqvmXLFpablaWJRwhrYMV4xLARkS88VJHDNiukoWFMunS6yBo1bKhIHlg9YTwCpVa+ICXDvwd2CCvvpUuWWs9ePS06Jk4uF0URJTqdC2rOJPb4wZ3LJ/oIPuAbzXLPZOC9l0OCjFrleAhl8wXwkI95tmzxPCs6fUI+Gv69r4C/fV4AxeATP/Hb0aOll6xfN1fGqxzxBaLu3gOi7FUMGV8+Zyrzm8Zx1BqUBSX8qpXL7fMv/hN0mEcf7ATL5CNWIEwvUn7+rtehvZAIASxIQHk+8Rt/5G3bd8htEyk/Fsu4J2CssHb1anvp1eFiI+ArobwMBoDVpgyeVNbeYXZZ/37WrFlTmznrF5s7f35Qw1FumdWrC9nKyrZKW8PAsbHAyGPp8uV2+YABiuvDxowV4PMvPrfUlDQhCy7CtFHUDp4pMlKalK5duygOzvsffSLNDHmgpoxvaVmptFcQBPITQwfXAlxpOQrjnXffr1Lj+pWLfPzmGyg8E6lmdpb163uJAnONHDVKx+tRj5bS+Hip/RhXvmGsCdRA5NkLLuggVurTzz7Xhokx4MJtw+ORh3/onT7SDnTeKFlYrlEx84xJBpun8CZUCGKRGISqTsiQ1u0yfcE0jOTz89sDlHfwb5kZTbSUbPv1VydZr9oFn58tfMds8QnKgqpp/4F9OkmexnJUxZ8lqBPGFAUFTdW5HTt2ypeGfjB6YvaDlBytAEschqHY/oEQGzdtlpGADDyio2338WOqBscmPyCELqZNJLqcnJIs5yO+RZXpN3Ag+OFDhzWIHm5Y86D7JYRKk8aNrUvnTkaggZ+mTQsa5rLxKpe1SyhE8M9pUdBMsPtp+nTxxiXFxL4MVz/5pvCkO9SSTUp2VrYiBBO4ikAA3btdbE2b5tvs2b/IEJhBpk2MC3c3tsTuibTOXTqJUn09aoyigYB4UEQQCrEOSI4xCYlymKD4MBG89Na/3Gzt27eziROdKAm4AzcHq/NU0eMKiMiqgiaPjQvt4G+QmHr5lnojrr766qHff/+9ZoAeoLsNkk0KA+OhGKGJQijQM7ggJgiCSANLaIxjDx48bHt/26fPqIyyfINZBiUaCCI2vxnxopISBW6PiIy21q1aasAJIoXFCx50bIIwokBJj2V3fqOGWkKXLFsmNSRAi4uOcsgYlBIACHgmEI/QKBi2wudwSmpqaooiRSAnZKkZMuQqe+nll6VL5j2R1IgKe/0NN8gDb/LkH2WpjGrwyOEj8ssefMVg+WPTUXSzV199te4AmTAg+Hwv52yWc0XGsXgM3JAhV4ovvuiijpKRYpPJ4BD0oHfvXrZkyXL7edp0sRxQZgwc4N+AIbAH3kwIVggoGWpV+kAowby69UR5sIDn3Gp4XHbWXIh8UlOSFIj0qiuvFE9PkCl4UtrLppM6MHyAT6kaL0ktHJ+KGpaDoAqaNhVyodcGxuADVM4nP+b8zXv6zQQm0WZwjPz+GyZ+FWUUVREVcHOVwigkNIVSQ577b7iDiIQngSKwIyPIJB0jeUT0f0sOFvQx4T3LBqZIbP23btsu41JEGG1atbS83DoSZdBoltZjx0/ojkUPda1as04BQSOioiw5JhpbMcOWx7fVA4WdKxPr+HEMQSps2YpVOsE+PS1FBhObt24Xz7Rs6VKdMIWP79VXX6OBO3T4sHijAQMGyN2yoFmBjRs7TuxI9+7dlR9kB9jAgkABIA0GDJWVWbZu/UYFhLr00ks1wPhSL1myWPXffPNNdvigi1GIyIMw0kT5gjCQoPOIwLwYy4+JHx/qAza7du+xadNnyRWX0HhEbMDgg4R0AIT19pcEp2Joxk6YIFETSO3HhrKAD9gIsXH1OESkLIJccTrWgw/crw3NnDnzbOXqVcoLkoWONd+SPJ4Q8oYxgDqG5iMP/ZXQG6D5xIdcFBR6+ffcfR7/jEazww0Lq7RGjRprh8cmhYb75DvL3wR+YiZ6wIbmOXTosNWtU9t273bLCrs2AONMvaIsJSnZygkcVFZq54qLJbbRhoNoq3jpRYQbpmZREVFCCPpA3YiDaCcDBLAx8MA5HVcCfFsIOlpUXCqq8t577+nbF154QVQN+86m+fkKx3HPPffI3pOZDDPOnUkEDBlITu0ikPqoUUSR2GjNmzcX0kI1Mc1iWadu8hOsvVbNbGvZoqUoC/zgunUbdNKV32HSdgxykS3KTTVkgjPhgCO8MolwK0x/zl+sV7+RkFBjhdEE4hlWtJhoy8hItcOHj8pZDiQIHU9fr5/M1A8ihybGmsmGgfPuPbu1KiUkOMTzCMjdl8FvWDJWTzaw8IqwDaxSwAwYUk/ELbfcMhRgIlIBcFz4KfhGYSTJMk2B/qJhzAIGV8AI+nPQZChkVla2eCVEIJiF/THBv/EtHSIBDN9w5Fj/X1/n/lvVccTxMb42NuZlXxvwg5ftayO1Jg8SHoFUISQlAkIqmv6SX5oo/JCoVf6QtqrkRlX6Qx+p1PxQKSlR+iCAMQHywDY0iQGDbcC+DuBngx+xAdvXrj7fPWNOHMhK955z9uzZnZ2dnZ2dnZ1dXVGuLQI9129qAzzbXfv7B21gaFA2ezjQxISKnpaqSgkheEEzrHtyctWwmO6TZ5zgQQb1oly4OLNJtnyev3jJMIfC6gdfjCiSd+zYIadNcDscQmHnh/Mn5DZm5+TBb9++ferVIJc6gSucgEJ01ItnjErxvoVDUfBG/RHi4RJLly23puZm+fzByUBNbUqw4HuHBiJwlYVOfMUDjUFk7YKNIXXdtfMp2Qz2pLttY/UqK1q6wJKLsy25NMeKChJWXFJgmSn8YKa1TWRkdMS6urrF0dnfgsxIPvy8bC9fgER/27dukTXXkYYGa209r1hmxohJfAedeOBe8Ec2l8zYiaPuOH3asGGDaE+TGRr01VdflR9BhhoA4VwO9IYg03tOvJB4YTQ23xDw+NrTc12ndzLDq61JWVPLWYdr7sosMh6858Fpqtavkw/pT+e8LsRThq2eFWtXSwFNw+KhYPPjm+3wkQ81fMNFgRmh35FADsAZOHWWFNac2EW6hsaTgasvCCeiQsTIfccaGowlNnoyhwStWbNaKxQ8v/nmm/bzl1+239XXC7iDBw/KQLa5qcm2bNmiFQYMllnmggNC0CjcmUzRGBXl5do0jw8bzm/p7+uXjSV7kn/x+msyjWPyhp9E5GnhG8KUrWaoCziH4FmV4lVV5Xrb9fSP7MqVS3br+iV7P33ZbgzgMhXiCHlk5+Za7foVNnxrwgqTJfbsM89ojZrNZiXFyTlm44sGmI3BdZkAAj/y4oqSYtu7b4+4Wl9vv1RwMAZg5AdOwTvBidrf8UwHhktWV1frjES0ItAdjCLr0KFDswcOHFAGEB9sk8w8IzglSCN4IdzzMWyWng93hCuwBFawKN/WroEQa7TYf7ShQUthTGzY7ywVRXS4Dpp+Vh7IZ2RszFaWFKvHoEuUvIPlNWod9bRZmeJj7Pr1yIhd/+q6paqr7OGHNlpZGRvXG7WhnR6KMO3wcrRacXFSrlVQzmKfyPbZ7dvgiqN2o7cveHuQMIDOdEpGsSi86SRwYY7wwIsEK0VftF6Qb0NEDQ6axBXxyhUrtW+HMikbPIITZsc/e/GAZvHMQukMOEBN1aQk79LY6PuYlDFUMdvkSBDUNNQHf5Slq1YKr2FpLxgva18PDpkGB6S24lhfjuDAs+7HR96zmekxO3T8gnBwv7/XfrrZ7uSssqd375dNYnt7uyZQqNaQUZEtmdCh5sJA49bwLcmkXde6ZJixfccOa2pqNvS1rD51XrmiIZtOB+FRf2gFmiBw5ZnDiKArVsUQfWh3Tw+Rzi0HEskHcBDuCXHii9+ToRMr8RROQE5kCIJA6dkotp/YusWuXuvSsJgsTkqBjq6L4W584o4O6RkdG7aiiUKd/8KwCRGEE11zZYiKyzzKw4loRUW5ffLZGc1SkS8ZwvGYiwrlZm+vet4cQdy9a5xsSgOzM3BoaMA6OzmlKSPVEMTw6CN1mmVDFOhEMd1X55vN2N3JacvP5Gk9FT0berkf1tUZhr/UlXoym2S/D/AREAM8bNu2Re72/nHogzn5GUen5aWrNONHQ8CSJJ2JZUgMYM+ePafdhjiZQkZkLxD1gWOzQWxyMpxWgIoHdREjEadK4Guy5fQJw2zyn43h7EUYCyHetrTX2Y5e27FpsTU3tVjNhlqdpuVLs3R+gIMoNZqMjdnk1LTwhYPWxx/bZL29fba+slKOF9LdPZqwzacPnp2OuPIjPzgsS8kQblAZBc+2jMSaTQM0BMUPNkuvJjN+TmheGFdHPAWQnkIIrFagcqDhaGgEdfztoGa40HZJhYuNQ+hqvLAfhKU+fPFggnX+YpvYNg6QhEiGKTGEWX0vZwC84EyTsTFruxzWiSG6jUN1dhJn8xaGDeB89733rfHEKQnM7GKrSVVbVeU6u9Teae0dzDixiA6IC3ULplPUje/5ofL4/ItWq66ukn4Skzf0jXCOJUuWaiVFwMb+4Mbbtz8hN8+fnWmaw2PnlS4bHLqlEYguz9Key7dwajjkyOg3tn/fHrvc0Wm/rf99IKaozsAoeVV6SnS6hfbCC/vEoaZuD9nN3v/ZyFg4jYF09wvnzn9lVRUlVlA8aDk5ddaVbrM//ukvc+04/xvUQ6yx7/7xs7Ywf5F98Nd37HJHhzgonQ8cIQNCK/PpI4Ad8MskjlUYVo0YmhGzSE9no+5znNE/mk98NIq/40OeSeME7O+5QsRwCwLCMEYDq0rL7MkdT9rxxuOSKWcybC4KqgYqQS8EKBCHSRY95PsCZbPvxuVMziGBI+Ixt7KqUnq1wF0xVaKhE5aTyLKsvBzLTSzT/mKMN87993MhwMsCIXQqweSR865nmlp0XMXTnCo1PKyhPz8v16ZxH4LMFTk0xTBj79490tWdPBU2u4F8hisMGahDvJz5z8cbT8iHJLLlT/Y/b0ODA5bAT9FMkMPQJOAkFNwiw7HU2fzJSVucO2WfXuj+FtTLlhTYrl077T+Hj81NJpHoTpy9ZvufWWbNTZ/YY5s22xtv/NK6u7qlm6Qt8cPO0iEiyhT1W7nKqqtTdvLUaWvvbJeYhjzs9XA6cBrxZ94TR2BY5p7OzOjjEx5PIz5OAv9BFP6SDGikAFzIEITyI857Hsjk2Tkk37FCgsDb2vq5lSRLtHKgrZ7SmQXnTK7xx0XH+MS4pvyC+nv+GNqAKXBWEs4avgVxSs86Nzo5zJIgVraF4ntahIbymFNCFy6UH0d6ogc6gw+vXhdHoOOFtPj+xnVcKlVtLNnhqg5cgQfWpLHvQuBHXYQr6bMt5+xGT1oyH+UyKoA75Fpm3/ziuHV46NBHjx2XR14mFovY28MpDjjxlBuVHOvovGqFRUl76JFNlixcbjeu37QVK5L2Yv5aqXZSlWvsXMsXVlK2VttEd+/ZbzOTkzbQ22Pjk1hdFdmmjVX2ZVu7FZWstNq8fNu2dZt1Xe2UdpM1cGR1ZEf0wMjwqMJOnDwtMYdJCHUnUAevB/gjgDfeOy0RD/GeOXNG9acens5xPeeFjMRxxHsCPgI5zvGIp2AfypnIeHCA/Jm9vPSAsJDuseFKWg+UjRyxZnWFNgdhOfKgoO+0xzkggnRUEr+Hs9MZ6RmnImsY0gYOGmBmlghiKyrKNJFi+CU4LFy9fg8q//CHR+xow3GlA25kH0YJhlcPVI0hvCRZaCsXL9SwyUmnM1h5R97/+TYevGyPg3NfuNgWFN7IcVEDcyUtHf+55/bKEevrB1+xRCLXFi4utZLCEauqXm0vvfSi/fntd23tZK61dfbb5k2VWlufsXJbU7DchofHrbr2IevpHbYzzS06ALO2doP95te/mmMyDgvlUSdgRsVEfWl/hzm8//YICh6dWB1mCNg3aiHCkZ9/y3XO0ts/pJc7IToCfPjywoknI7653zuvBNf7EaLn6+nIA8HW1qy22lTKMAV7UMDChqEDQRvjBuBujnlGAAAGDUlEQVRgKIawILSqZQU2PDZhN+GMUuncO1BpFqdEHJo+PKoZMMpbAuV7nakjgbrF68s9Qy2ysJbmIq7AEcYMp5hgMTyDP34QPkr5ZYVLLTF+x25jRRh1ZDo4cBO8DC+fODylUT/n1p5GH8T+jh39UJ3368F+uz0+ao8/esVazvfYe/8etbff+bu1dbTZ1fRViQ8tTbjGTmjpz2yBrS0tsvYvT9m/Gj628rIyrTtzbBtD6YMCB0VBiNg3UgfwRgB2/8Wf4/ekZRbNEI3HEEYHcOx0Bz7EGf0jrvEEPMfZqafzguNpPY40BBDogXfzA+/1iwiWNCjbWZ9lyO0fCBYt/h2zO+wMqRQyJ4EKMPyRT9jQaJa+m7EMB+pEvhNBnsPCEImiGGPUstJSTR7wuUgvJzic86+8Aw8M99no3qgPS5iRzgw9HBoCiJV0/v03Y+M2lp9vieVFNj6IW7zAoUkDLARg8wbxciRfTmc0WhDnBEJaz5t7Jj/k5brc/PxsK8rLttZ02nrSaeXPpJDgRg8cgEQnff6plB0+cVquqP3IYyWM/rwsrrBFxCImpwzX2TlmmfF7S8XA5HD5vb6L6Ik4nqknulbaENwBO4F2JE1CHCnWEHGAuKcxCWTgvZlnPiZz4imI4ZrMIUHeMdMlnvv5wQGd/w6lOcMT6hv0fciYTILIl7RwJb4FDiYxxDFE07DcE78gO8dy8/IFB8MCxMpBSZieobYhD3gScmZFeZmGDeDzukGY1IkgOKNyIRAahLLE+aLO1nXtmhqeuLgcyvfA1DswJLM4DC/gdKwxE5BT4Q6Uy+gB3sgbG0o4j8MRxyH5eeCeMj0kssyazl2yV17abT19Q3Yt3eevvnPdtmWDTdzOWFc6GLJ8J0GMHlRmVC4e2HDRorAo1AH44z5zeBeHmWfy4Ae9cOV9nBj9fcJlwVBC+NDvubJa4vKQ9+B4YWQEweJVAiGee2azXkA8L7/nnYd7dyEGB57Fd0ssVVMjHSKthEkT3BBdGGXTU0HCNMavd7CXDJMI3ik+8hIWGitLp6KyUhGG9uCQiHrDIevqNkoRzsyb44Qpj3uIg2GN+kDUTDYwzgAHdA44IYkpjyBijepF/YKxQSAwHCSx7IX/a2RY4GLyFid6HMxnMuj0ghkXnYh6UV2XyxFLiBOQNK4aOYgqTpiNH7XYzicfs+6vBgSr41nf2KyVLk7Yth9UWf3fjumVhkttfQjGGIg8PtqQAJwxSQS3wMvowKod3Bq6ACfgCLzwAx/U35+5Ahvx3pG5EsiPtB6fVV9fP4uJE2M5H9IjIUD/gOU2rCxYIoSLOmslLYFnDV8cYKmGCeb6tAtAMiyqZYVCaVMFmIhKlMhfiCc/VjkAEBcaLIepUpEfGirEMwhKJBYIIRjLsvIT/PJEnJjC0YFGXIf8VB5mBJG/auQ+AsaepAMxNK6u0ZAEWNQPnIBQyqAs8vIfMLFiEcSIMPOkPA1tEOXUtAximeiwIECevHaY6CTAhFpInT6ygKYcAmm1AhX6YET8WTISDjrKHHm8mLgd/D9m2Yw9t3OrrS9bYd2stycWWPZsti1gV+DUtD3ycLV99GWHHf/0oiWThVo5QeHPiMEohFUUKyrUiM5P/TE/QykPDqCLVKpG+52ALys7W0dxXGu/rDyIAyfQBO0PnsiDZVQMSMAlcbhQBNf8SMcRbll9fX3s+FfF/c+R7xkzvECwIIuCCBAFCHWkht4UcoCzEA8QECOFE8J+Z+6dH4ZZmseQjtkaGn9xhLygliE1iCA/L5MrkxlaV+fEcMZ11HhS+0QH60AkqHto1QArM7iw2QpEAAubv0KHieAEoZF7EFEDpCZOeG84Bw9er7BcGWoVCCcQaygv3AO/fA6JkMMCA40QYKazgNNAzAzlqHLIX87e6YD4KooalrLFDNxKX/W+JzZZ5q4lly6xRDaZwn1o9BlDQJmcTdj4nUltXtMOQsltAUd0NoiRjXNvvfUHW712XWAImYw6FCIEm+LWr19nBUs4JDPLJhHfEgnrTXdHTqGC3Aw9MFpwxXSOnaHMpAmON687V0af/wN5EGo7foVrbwAAAABJRU5ErkJggg==;" vertex="1" parent="1">
          <mxGeometry x="424.5" y="217" width="163" height="147" as="geometry"/>
        </mxCell>
        <mxCell id="8w2w_Armb7Lmg7mIWZFZ-4" value="" style="endArrow=classic;startArrow=classic;html=1;entryX=1;entryY=0.75;entryDx=0;entryDy=0;" edge="1" parent="1">
          <mxGeometry width="50" height="50" relative="1" as="geometry">
            <mxPoint x="690" y="344" as="sourcePoint"/>
            <mxPoint x="593" y="344.25" as="targetPoint"/>
          </mxGeometry>
        </mxCell>
        <mxCell id="8w2w_Armb7Lmg7mIWZFZ-5" value="" style="endArrow=none;dashed=1;html=1;" edge="1" parent="1">
          <mxGeometry width="50" height="50" relative="1" as="geometry">
            <mxPoint x="399.5" y="463" as="sourcePoint"/>
            <mxPoint x="399.5" y="103" as="targetPoint"/>
          </mxGeometry>
        </mxCell>
        <mxCell id="hD__3-pXEL17_GTIyWIv-16" value="PowerOne infra" style="text;html=1;strokeColor=none;fillColor=none;align=center;verticalAlign=middle;whiteSpace=wrap;rounded=0;rotation=-90;" parent="1" vertex="1">
          <mxGeometry x="42" y="272" width="266" height="30" as="geometry"/>
        </mxCell>
        <mxCell id="8w2w_Armb7Lmg7mIWZFZ-7" value="" style="endArrow=classic;startArrow=classic;html=1;entryX=1;entryY=0.75;entryDx=0;entryDy=0;" edge="1" parent="1">
          <mxGeometry width="50" height="50" relative="1" as="geometry">
            <mxPoint x="690" y="271.5" as="sourcePoint"/>
            <mxPoint x="593" y="271.75" as="targetPoint"/>
          </mxGeometry>
        </mxCell>
        <mxCell id="8w2w_Armb7Lmg7mIWZFZ-9" value="" style="endArrow=classic;html=1;entryX=0.467;entryY=-0.583;entryDx=0;entryDy=0;entryPerimeter=0;" edge="1" parent="1">
          <mxGeometry width="50" height="50" relative="1" as="geometry">
            <mxPoint x="512" y="419" as="sourcePoint"/>
            <mxPoint x="407.6700000000001" y="418.79" as="targetPoint"/>
          </mxGeometry>
        </mxCell>
        <mxCell id="8w2w_Armb7Lmg7mIWZFZ-10" value="" style="endArrow=classic;html=1;" edge="1" parent="1">
          <mxGeometry width="50" height="50" relative="1" as="geometry">
            <mxPoint x="511" y="419" as="sourcePoint"/>
            <mxPoint x="511" y="362" as="targetPoint"/>
          </mxGeometry>
        </mxCell>
        <mxCell id="8w2w_Armb7Lmg7mIWZFZ-12" value="" style="endArrow=classic;html=1;" edge="1" parent="1">
          <mxGeometry width="50" height="50" relative="1" as="geometry">
            <mxPoint x="510" y="170" as="sourcePoint"/>
            <mxPoint x="510" y="217" as="targetPoint"/>
          </mxGeometry>
        </mxCell>
        <mxCell id="8w2w_Armb7Lmg7mIWZFZ-13" value="&lt;font style=&quot;font-size: 10px&quot;&gt;PowerProtect - Core Cube &lt;br&gt;1U- 4Node&lt;/font&gt;" style="text;html=1;strokeColor=none;fillColor=none;align=center;verticalAlign=middle;whiteSpace=wrap;rounded=0;" vertex="1" parent="1">
          <mxGeometry x="490" y="193" width="180" height="20" as="geometry"/>
        </mxCell>
      </root>
    </mxGraphModel>
  </diagram>
</mxfile>
